<svg width="170" height="140" viewBox="0 0 170 140" fill="none" xmlns="http://www.w3.org/2000/svg">
<path d="M84.7028 140C131.483 140 169.406 137.786 169.406 135.055C169.406 132.323 131.483 130.109 84.7028 130.109C37.9228 130.109 0 132.323 0 135.055C0 137.786 37.9228 140 84.7028 140Z" fill="#F5F5F5"/>
<path d="M135.008 23.9871C135.619 26.036 138.773 29.8716 139.022 32.6632C139.271 35.4547 133.894 39.9194 133.894 39.9194C133.894 39.9194 129.875 26.4816 132.391 24.9133C134.907 23.3449 135.008 23.9871 135.008 23.9871Z" fill="#263238"/>
<path d="M123.964 38.5041C123.012 39.2992 122.077 39.9676 121.102 40.6535C120.128 41.3394 119.124 41.9641 118.101 42.5495C117.075 43.1565 116.018 43.7092 114.934 44.2052C114.384 44.4542 113.838 44.6988 113.27 44.9129C112.99 45.0265 112.706 45.1357 112.418 45.2318L111.544 45.5376C110.797 45.7465 110.015 45.8029 109.246 45.7036C108.603 45.6284 107.966 45.5057 107.341 45.3366C106.176 45.0143 105.036 44.6084 103.93 44.1222C101.781 43.1842 99.7087 42.0815 97.7305 40.8239L98.5474 39.3036C99.5784 39.7405 100.636 40.1773 101.684 40.5574C102.733 40.9375 103.79 41.3394 104.847 41.667C105.878 42.0048 106.928 42.2791 107.992 42.4883C108.481 42.5839 108.976 42.6437 109.473 42.6674C109.844 42.6962 110.217 42.6577 110.574 42.5538C111.571 42.1725 112.545 41.7349 113.492 41.2433C113.977 40.9899 114.458 40.7321 114.93 40.4525C115.401 40.173 115.882 39.9021 116.349 39.6138C117.289 39.0328 118.206 38.4168 119.115 37.7833C120.023 37.1499 120.928 36.4728 121.736 35.8306L123.964 38.5041Z" fill="#E58A7B"/>
<path d="M126.27 33.8515C125.187 33.004 120.704 35.7781 119.346 36.9358L120.337 42.9339C120.337 42.9339 126.781 40.2341 127.166 38.3905C127.572 36.464 127.078 34.4981 126.27 33.8515Z" fill="#1AB76D"/>
<path opacity="0.2" d="M126.27 33.8515C125.187 33.004 120.704 35.7781 119.346 36.9358L120.337 42.9339C120.337 42.9339 126.781 40.2341 127.166 38.3905C127.572 36.464 127.078 34.4981 126.27 33.8515Z" fill="black"/>
<path d="M141.346 52.0031L127.742 54.6549C120.713 35.6209 122.242 34.9962 122.242 34.9962C123.231 34.4529 124.252 33.9715 125.3 33.5545L125.484 33.4846C126.357 33.1657 126.532 33.1177 127.694 32.7769C129.695 32.3007 131.56 31.9032 133.871 31.5756L134.308 31.5144C134.745 31.462 135.143 31.4183 135.544 31.379C135.815 31.3484 136.086 31.3309 136.344 31.3134L137.218 31.2654C138.712 31.1911 139.782 31.213 139.782 31.213C139.367 43.0999 140.04 46.5118 141.346 52.0031Z" fill="#1AB76D"/>
<path opacity="0.2" d="M141.346 52.0031L127.742 54.6549C120.713 35.6209 122.242 34.9962 122.242 34.9962C123.231 34.4529 124.252 33.9715 125.3 33.5545L125.484 33.4846C126.357 33.1657 126.532 33.1177 127.694 32.7769C129.695 32.3007 131.56 31.9032 133.871 31.5756L134.308 31.5144C134.745 31.462 135.143 31.4183 135.544 31.379C135.815 31.3484 136.086 31.3309 136.344 31.3134L137.218 31.2654C138.712 31.1911 139.782 31.213 139.782 31.213C139.367 43.0999 140.04 46.5118 141.346 52.0031Z" fill="black"/>
<path d="M130.691 25.3545C129.818 26.8005 132.985 27.4689 134.859 25.988C136.357 24.7997 136.003 22.0562 134.719 21.4184C133.435 20.7806 130.691 25.3545 130.691 25.3545Z" fill="#1AB76D"/>
<path opacity="0.4" d="M130.691 25.3545C129.818 26.8005 132.985 27.4689 134.859 25.988C136.357 24.7997 136.003 22.0562 134.719 21.4184C133.435 20.7806 130.691 25.3545 130.691 25.3545Z" fill="black"/>
<path d="M143.932 130.787L140.529 131.04L139.284 123.207L142.687 122.954L143.932 130.787Z" fill="#E58A7B"/>
<path d="M168.003 119.839L165.115 121.656L159.974 115.558L162.861 113.736L168.003 119.839Z" fill="#E58A7B"/>
<path d="M139.284 123.207L139.974 127.558L143.33 126.995L142.692 122.958L139.284 123.207Z" fill="#CF6F64"/>
<path d="M162.866 113.74L159.974 115.558L162.106 118.083L165.059 116.34L162.866 113.74Z" fill="#CF6F64"/>
<path d="M127.952 54.655C127.952 54.655 127.904 81.6617 130.11 91.8318C132.408 102.413 139.166 126.484 139.166 126.484L144.068 125.85C144.068 125.85 140.237 101.534 138.603 91.0192C136.825 79.5604 137.917 52.7153 137.917 52.7153L127.952 54.655Z" fill="#1AB76D"/>
<path opacity="0.7" d="M127.952 54.655C127.952 54.655 127.904 81.6617 130.11 91.8318C132.408 102.413 139.166 126.484 139.166 126.484L144.068 125.85C144.068 125.85 140.237 101.534 138.603 91.0192C136.825 79.5604 137.917 52.7153 137.917 52.7153L127.952 54.655Z" fill="black"/>
<path opacity="0.5" d="M137.611 64.6853L135.208 62.2913C135.3 72.6667 135.881 77.7911 137.877 83.3741C137.563 77.4722 137.536 70.4911 137.611 64.6853Z" fill="black"/>
<path d="M131.333 53.9559C131.333 53.9559 138.659 76.2751 142.294 89.1319C146.129 102.696 160.834 117.698 160.834 117.698L165.054 115.261C165.054 115.261 155.006 101.019 151.311 88.363C143.797 62.6713 146.885 57.228 141.341 52.0032L131.333 53.9559Z" fill="#1AB76D"/>
<path opacity="0.7" d="M131.333 53.9559C131.333 53.9559 138.659 76.2751 142.294 89.1319C146.129 102.696 160.834 117.698 160.834 117.698L165.054 115.261C165.054 115.261 155.006 101.019 151.311 88.363C143.797 62.6713 146.885 57.228 141.341 52.0032L131.333 53.9559Z" fill="black"/>
<path d="M125.576 17.4736C127.524 18.1246 129.293 22.9606 129.368 24.8653C129.442 26.77 123.723 29.3956 123.723 29.3956C123.723 29.3956 121.203 23.2795 121.906 19.3478C122.212 17.6396 125.576 17.4736 125.576 17.4736Z" fill="#263238"/>
<path d="M98.8353 39.4653L96.5243 36.949L95.7686 40.1031C95.7686 40.1031 97.4112 41.5535 98.7392 41.0555L98.8353 39.4653Z" fill="#E58A7B"/>
<path d="M94.1828 36.228L92.5664 37.5124L95.7686 40.103L96.5244 36.9488L94.1828 36.228Z" fill="#E58A7B"/>
<path d="M164.211 121.005L166.911 118.283C166.958 118.237 167.02 118.209 167.085 118.204C167.151 118.199 167.217 118.218 167.269 118.257L169.729 120.083C169.79 120.131 169.84 120.191 169.876 120.26C169.912 120.328 169.933 120.404 169.937 120.481C169.942 120.558 169.93 120.636 169.902 120.708C169.875 120.78 169.832 120.846 169.777 120.9C168.816 121.831 168.309 122.233 167.121 123.43C166.391 124.168 165.4 125.317 164.391 126.335C163.381 127.353 162.32 126.405 162.643 125.898C164.115 123.596 163.853 122.735 163.954 121.564C163.969 121.353 164.061 121.154 164.211 121.005Z" fill="#263238"/>
<path d="M140.302 130.551H144.138C144.205 130.55 144.27 130.574 144.322 130.617C144.374 130.66 144.409 130.72 144.422 130.786L145.024 133.818C145.038 133.893 145.035 133.969 145.015 134.043C144.996 134.116 144.96 134.184 144.912 134.242C144.863 134.3 144.802 134.346 144.733 134.378C144.664 134.41 144.589 134.426 144.513 134.425C143.172 134.404 142.526 134.325 140.839 134.325C139.804 134.325 137.663 134.43 136.23 134.43C134.798 134.43 134.645 133.014 135.234 132.888C137.856 132.311 138.882 131.52 139.743 130.76C139.899 130.627 140.097 130.553 140.302 130.551Z" fill="#263238"/>
<g style="mix-blend-mode:multiply" opacity="0.27">
<path d="M140.224 38.1023L138.127 39.3517L140.547 48.4515C140.019 45.6949 140.254 42.6675 140.224 38.1023Z" fill="#1AB76D"/>
</g>
<path d="M128.306 23.8955C129.795 25.1406 131.958 26.9535 134.505 24.8348C136.689 23.0087 138.218 18.2163 134.299 18.0416C132.251 17.9498 128.306 23.8955 128.306 23.8955Z" fill="#263238"/>
<path d="M131.906 24.7473C131.906 26.8093 132.225 30.527 133.872 31.5842C133.872 31.5842 133.723 33.7073 130.027 34.4238C125.969 35.2145 127.695 32.7855 127.695 32.7855C129.809 31.8244 129.442 30.1906 128.743 28.7227L131.906 24.7473Z" fill="#E58A7B"/>
<path d="M130.617 26.3682L128.747 28.7228C128.911 29.0632 129.045 29.4168 129.149 29.78C129.97 29.4917 130.953 28.3384 130.87 27.4341C130.852 27.0662 130.766 26.7048 130.617 26.3682Z" fill="#CF6F64"/>
<path d="M132.102 20.0118C132.539 23.3712 132.805 24.7823 131.46 26.8137C129.437 29.8717 125.217 29.6751 123.78 26.5166C122.469 23.6727 121.98 18.6532 124.968 16.7091C125.625 16.2742 126.382 16.0146 127.168 15.9551C127.954 15.8956 128.742 16.0381 129.457 16.3692C130.172 16.7002 130.79 17.2087 131.253 17.8463C131.716 18.4839 132.008 19.2294 132.102 20.0118Z" fill="#E58A7B"/>
<path d="M126.266 14.1273C123.994 15.7393 128.55 16.2155 128.555 18.5527C128.555 19.5182 130.14 22.5806 132.395 22.4058L134.579 18.5265C136.877 14.8132 131.447 10.4446 126.266 14.1273Z" fill="#263238"/>
<path d="M126.265 14.1273C122.268 13.9176 120.525 17.0979 120.984 19.955C123.772 19.2597 126.657 19.0309 129.52 19.2779C134.998 19.837 126.265 14.1273 126.265 14.1273Z" fill="#263238"/>
<path d="M133.195 22.9083C133.25 23.5604 133.044 24.2079 132.622 24.7082C132.059 25.3679 131.312 24.9791 131.05 24.1971C130.827 23.4894 130.853 22.2967 131.613 21.921C131.781 21.8434 131.966 21.8087 132.15 21.8203C132.335 21.8318 132.514 21.8892 132.671 21.9871C132.828 22.0851 132.958 22.2206 133.049 22.3815C133.141 22.5423 133.191 22.7234 133.195 22.9083Z" fill="#E58A7B"/>
<path d="M127.248 21.9209C127.301 22.1918 127.2 22.4364 127.026 22.4714C126.851 22.5063 126.663 22.3141 126.611 22.0345C126.558 21.7549 126.659 21.5147 126.833 21.4797C127.008 21.4448 127.196 21.6501 127.248 21.9209Z" fill="#263238"/>
<path d="M124.195 22.5151C124.247 22.786 124.147 23.035 123.972 23.0699C123.797 23.1049 123.609 22.9126 123.557 22.633C123.504 22.3535 123.605 22.1132 123.78 22.0826C123.954 22.052 124.142 22.2399 124.195 22.5151Z" fill="#263238"/>
<path d="M123.864 22.0868L123.178 22.03C123.178 22.03 123.61 22.4713 123.864 22.0868Z" fill="#263238"/>
<path d="M125.095 22.8252C124.972 23.487 124.761 24.1292 124.466 24.7343C124.622 24.8073 124.793 24.8451 124.966 24.8451C125.139 24.8451 125.31 24.8073 125.466 24.7343L125.095 22.8252Z" fill="#DF5753"/>
<path d="M126.606 25.608C126.587 25.6082 126.569 25.6018 126.555 25.5898C126.54 25.5777 126.531 25.5609 126.528 25.5424C126.526 25.5321 126.526 25.5215 126.528 25.5112C126.531 25.501 126.535 25.4913 126.541 25.4827C126.547 25.4742 126.555 25.4669 126.564 25.4614C126.573 25.4559 126.583 25.4523 126.593 25.4507C126.931 25.3919 127.25 25.2546 127.525 25.0496C127.799 24.8447 128.022 24.5781 128.175 24.2712C128.179 24.2614 128.184 24.2526 128.192 24.2451C128.199 24.2376 128.208 24.2317 128.218 24.2276C128.228 24.2236 128.238 24.2215 128.249 24.2214C128.259 24.2214 128.27 24.2235 128.279 24.2275C128.289 24.2315 128.298 24.2374 128.306 24.2448C128.313 24.2523 128.319 24.2611 128.323 24.2709C128.327 24.2806 128.329 24.291 128.329 24.3016C128.329 24.3121 128.327 24.3226 128.323 24.3323C128.163 24.6658 127.925 24.9559 127.629 25.1779C127.334 25.4 126.989 25.5475 126.624 25.608H126.606Z" fill="#263238"/>
<path d="M127.952 20.759C127.912 20.7595 127.873 20.7455 127.843 20.7197C127.696 20.58 127.518 20.4771 127.323 20.4194C127.129 20.3617 126.924 20.3508 126.724 20.3877C126.68 20.3987 126.634 20.3917 126.595 20.3684C126.556 20.345 126.528 20.3072 126.517 20.2632C126.506 20.2191 126.513 20.1725 126.536 20.1336C126.559 20.0947 126.597 20.0667 126.641 20.0557C126.893 20.0061 127.153 20.0171 127.4 20.0877C127.647 20.1583 127.874 20.2866 128.061 20.4619C128.091 20.4922 128.108 20.533 128.108 20.5755C128.108 20.618 128.091 20.6588 128.061 20.6891C128.049 20.7078 128.033 20.7238 128.014 20.7358C127.995 20.7479 127.974 20.7558 127.952 20.759Z" fill="#263238"/>
<path d="M122.505 21.3662C122.485 21.3707 122.464 21.3707 122.444 21.3662C122.424 21.358 122.405 21.346 122.39 21.3308C122.375 21.3156 122.363 21.2975 122.355 21.2775C122.347 21.2576 122.343 21.2362 122.343 21.2147C122.343 21.1931 122.348 21.1719 122.356 21.1521C122.449 20.9132 122.598 20.7 122.79 20.5305C122.983 20.361 123.213 20.2401 123.461 20.1779C123.482 20.1735 123.504 20.1734 123.525 20.1777C123.546 20.182 123.566 20.1906 123.584 20.2028C123.601 20.2151 123.616 20.2309 123.627 20.2491C123.639 20.2674 123.646 20.2877 123.649 20.309C123.654 20.3296 123.654 20.351 123.65 20.3718C123.646 20.3926 123.638 20.4123 123.626 20.4298C123.614 20.4474 123.599 20.4623 123.581 20.4738C123.563 20.4854 123.543 20.4932 123.523 20.4968C123.326 20.5504 123.145 20.6489 122.993 20.7846C122.842 20.9204 122.724 21.0896 122.649 21.2788C122.635 21.3049 122.614 21.3268 122.589 21.3421C122.563 21.3575 122.534 21.3658 122.505 21.3662Z" fill="#263238"/>
<path d="M163.198 122.591C163.123 122.589 163.05 122.569 162.984 122.532C162.919 122.496 162.863 122.444 162.822 122.381C162.791 122.344 162.77 122.3 162.762 122.252C162.754 122.205 162.758 122.156 162.774 122.11C162.927 121.7 164.133 121.438 164.268 121.407C164.284 121.404 164.3 121.406 164.315 121.412C164.33 121.418 164.342 121.429 164.351 121.442C164.361 121.455 164.366 121.47 164.366 121.486C164.366 121.501 164.361 121.517 164.351 121.529C164.115 121.918 163.652 122.569 163.22 122.591H163.198ZM164.111 121.608C163.635 121.73 163.006 121.949 162.927 122.167C162.919 122.187 162.918 122.209 162.922 122.23C162.927 122.251 162.938 122.27 162.953 122.285C162.98 122.33 163.019 122.367 163.065 122.393C163.111 122.418 163.163 122.431 163.216 122.429C163.447 122.416 163.775 122.115 164.111 121.608Z" fill="#1AB76D"/>
<path d="M163.914 121.608C163.477 121.608 162.931 121.499 162.77 121.263C162.734 121.209 162.717 121.145 162.723 121.081C162.728 121.016 162.756 120.956 162.8 120.909C162.839 120.86 162.887 120.82 162.942 120.792C162.997 120.763 163.057 120.747 163.119 120.743H163.154C163.643 120.743 164.316 121.403 164.342 121.429C164.353 121.439 164.36 121.451 164.364 121.465C164.368 121.479 164.368 121.494 164.364 121.508C164.36 121.521 164.353 121.533 164.343 121.543C164.333 121.553 164.321 121.561 164.307 121.564C164.179 121.595 164.047 121.61 163.914 121.608ZM163.154 120.905H163.128C163.089 120.906 163.05 120.916 163.015 120.934C162.981 120.953 162.95 120.978 162.927 121.01C162.866 121.093 162.883 121.141 162.905 121.171C163.036 121.372 163.704 121.486 164.115 121.438C163.853 121.171 163.519 120.986 163.154 120.905Z" fill="#1AB76D"/>
<path d="M139.049 131.149C138.755 131.175 138.461 131.101 138.214 130.939C138.156 130.894 138.11 130.834 138.081 130.766C138.052 130.698 138.041 130.624 138.048 130.551C138.048 130.507 138.059 130.463 138.08 130.425C138.102 130.387 138.133 130.355 138.17 130.332C138.572 130.096 139.979 130.795 140.136 130.874C140.151 130.882 140.163 130.894 140.171 130.909C140.179 130.923 140.182 130.94 140.18 130.957C140.178 130.973 140.171 130.989 140.16 131.001C140.149 131.014 140.135 131.022 140.119 131.027C139.767 131.1 139.408 131.141 139.049 131.149ZM138.402 130.441C138.351 130.438 138.299 130.449 138.253 130.472C138.239 130.48 138.227 130.492 138.219 130.507C138.211 130.521 138.208 130.538 138.21 130.555C138.205 130.604 138.213 130.654 138.232 130.699C138.251 130.745 138.281 130.785 138.319 130.817C138.537 131.005 139.101 131.035 139.844 130.913C139.393 130.677 138.905 130.517 138.402 130.441Z" fill="#1AB76D"/>
<path d="M140.101 131.018H140.071C139.634 130.83 138.791 130.087 138.852 129.707C138.852 129.62 138.93 129.506 139.149 129.485H139.214C139.975 129.485 140.171 130.874 140.18 130.935C140.182 130.95 140.18 130.964 140.175 130.978C140.169 130.992 140.161 131.004 140.149 131.014C140.134 131.02 140.117 131.021 140.101 131.018ZM139.227 129.638H139.179C139.04 129.638 139.031 129.703 139.031 129.721C138.996 129.952 139.573 130.533 140.009 130.791C139.922 130.45 139.699 129.646 139.21 129.646L139.227 129.638Z" fill="#1AB76D"/>
<path d="M126.916 21.4928L126.23 21.4316C126.23 21.4316 126.663 21.8772 126.916 21.4928Z" fill="#263238"/>
<path d="M129.918 37.329C122.61 38.9585 124.868 34.5375 125.305 33.5633L125.488 33.4934C126.362 33.1745 126.537 33.1264 127.699 32.7857C129.727 32.2383 131.791 31.8368 133.876 31.5843L134.313 31.5232C134.75 31.4664 135.147 31.4227 135.549 31.3877C135.82 31.3571 136.091 31.3397 136.349 31.3222L137.222 31.2698C137.371 31.9513 137.734 35.5947 129.918 37.329Z" fill="#E58A7B"/>
<path d="M141.39 51.1644L142.242 52.2652C142.307 52.3482 142.215 52.4662 142.058 52.4968L127.79 55.2752C127.668 55.3014 127.554 55.2752 127.533 55.1835L127.17 53.9908C127.17 53.9078 127.24 53.8161 127.371 53.7899L141.149 51.1076C141.191 51.0953 141.235 51.0941 141.277 51.1041C141.319 51.114 141.358 51.1348 141.39 51.1644Z" fill="#26395A"/>
<path d="M139.839 53.0647L140.211 52.9948C140.285 52.9948 140.333 52.9336 140.32 52.8856L139.839 51.3391C139.839 51.291 139.752 51.2692 139.678 51.2823L139.311 51.3522C139.236 51.3522 139.188 51.4177 139.201 51.4614L139.682 53.0123C139.695 53.056 139.769 53.0822 139.839 53.0647Z" fill="#1AB76D"/>
<path d="M131.482 58.2196L128.638 57.1624L129.075 59.8665C129.075 59.8665 131.137 60.6092 132.189 59.6568L131.482 58.2196Z" fill="#E58A7B"/>
<path d="M125.929 57.8788L125.252 59.6525L129.074 59.8665L128.638 57.1624L125.929 57.8788Z" fill="#E58A7B"/>
<path d="M128.852 55.2053L129.224 55.1354C129.294 55.1354 129.346 55.0743 129.329 55.0262L128.848 53.4797C128.848 53.4317 128.765 53.4098 128.691 53.4229L128.319 53.4928C128.245 53.4928 128.197 53.5584 128.215 53.602L128.695 55.1529C128.708 55.1966 128.778 55.2228 128.852 55.2053Z" fill="#1AB76D"/>
<path d="M134.347 54.1306L134.714 54.0607C134.789 54.0607 134.837 53.9996 134.824 53.9515L134.343 52.405C134.343 52.357 134.256 52.3351 134.181 52.3482L133.814 52.4181C133.74 52.4181 133.692 52.4837 133.705 52.5273L134.186 54.0782C134.203 54.1035 134.229 54.1223 134.258 54.1318C134.287 54.1413 134.319 54.1409 134.347 54.1306Z" fill="#1AB76D"/>
<path d="M132.792 29.85C133.103 29.732 133.491 30.8242 133.395 30.964C133.173 31.2829 129.092 32.3969 128.909 31.7721C128.897 31.4335 128.949 31.0957 129.062 30.7761C129.18 30.5664 130.084 30.9508 132.792 29.85Z" fill="#1AB76D"/>
<path d="M132.102 29.8762C132.259 29.5136 132.709 28.9326 133.102 29.2646C133.496 29.5966 133.662 30.3131 133.404 30.431C133.146 30.549 131.831 30.4835 132.102 29.8762Z" fill="#1AB76D"/>
<path d="M132.937 30.064C133.208 29.7757 133.811 29.3782 134.086 29.8238C134.361 30.2694 134.26 30.9989 133.981 31.0208C133.701 31.0426 132.478 30.5402 132.937 30.064Z" fill="#1AB76D"/>
<path d="M133.085 29.9984C133.063 29.7661 133.109 29.5324 133.217 29.3255C133.325 29.1186 133.49 28.9472 133.693 28.832C134.191 28.5087 134.676 28.299 134.868 27.9583C134.951 28.2777 134.967 28.6108 134.916 28.9368C134.815 29.4043 133.265 29.7625 133.369 30.1688L133.085 29.9984Z" fill="#1AB76D"/>
<path d="M133.02 29.9766C132.875 29.7932 132.787 29.5719 132.765 29.3394C132.743 29.1068 132.789 28.8729 132.898 28.666C133.134 28.1243 133.431 27.6874 133.413 27.303C133.656 27.5265 133.851 27.797 133.985 28.0981C134.151 28.5349 133.046 29.6839 133.356 29.9722L133.02 29.9766Z" fill="#1AB76D"/>
<path d="M163.403 115.317C163.394 115.317 163.386 115.314 163.378 115.31C163.37 115.305 163.364 115.299 163.36 115.291C163.259 115.151 153.272 100.901 149.612 88.3804C147.222 80.3491 145.386 72.1635 144.116 63.8813C143.36 59.2156 142.901 56.3978 141.399 54.0868C141.388 54.0763 141.383 54.0622 141.383 54.0475C141.383 54.0329 141.388 54.0188 141.399 54.0082C141.409 53.9993 141.422 53.9944 141.436 53.9944C141.449 53.9944 141.463 53.9993 141.473 54.0082C142.993 56.341 143.452 59.1675 144.208 63.8463C145.484 72.1167 147.323 80.2904 149.712 88.3105C153.369 100.813 163.346 115.046 163.447 115.19C163.455 115.201 163.46 115.214 163.46 115.228C163.46 115.241 163.455 115.254 163.447 115.265C163.446 115.277 163.442 115.289 163.434 115.298C163.426 115.308 163.415 115.314 163.403 115.317Z" fill="#1AB76D"/>
<path opacity="0.4" d="M163.403 115.317C163.394 115.317 163.386 115.314 163.378 115.31C163.37 115.305 163.364 115.299 163.36 115.291C163.259 115.151 153.272 100.901 149.612 88.3804C147.222 80.3491 145.386 72.1635 144.116 63.8813C143.36 59.2156 142.901 56.3978 141.399 54.0868C141.388 54.0763 141.383 54.0622 141.383 54.0475C141.383 54.0329 141.388 54.0188 141.399 54.0082C141.409 53.9993 141.422 53.9944 141.436 53.9944C141.449 53.9944 141.463 53.9993 141.473 54.0082C142.993 56.341 143.452 59.1675 144.208 63.8463C145.484 72.1167 147.323 80.2904 149.712 88.3105C153.369 100.813 163.346 115.046 163.447 115.19C163.455 115.201 163.46 115.214 163.46 115.228C163.46 115.241 163.455 115.254 163.447 115.265C163.446 115.277 163.442 115.289 163.434 115.298C163.426 115.308 163.415 115.314 163.403 115.317Z" fill="black"/>
<path d="M144.946 125.833L138.271 126.697L137.834 124.836L144.784 123.364L144.946 125.833Z" fill="#1AB76D"/>
<path d="M165.409 115.112L160.485 117.956L158.825 116.536L164.212 112.893L165.409 115.112Z" fill="#1AB76D"/>
<path d="M142.303 35.8394C142.539 37.0538 142.675 38.1984 142.806 39.3823C142.937 40.5662 142.985 41.737 143.02 42.9209C143.055 44.114 143.028 45.3082 142.941 46.4987C142.893 47.0972 142.841 47.6957 142.758 48.2986C142.723 48.5957 142.683 48.8971 142.627 49.1985L142.465 50.1247C142.286 50.8796 141.958 51.5911 141.5 52.2172C141.124 52.7441 140.709 53.242 140.259 53.7069C139.416 54.5729 138.511 55.376 137.55 56.1097C135.693 57.54 133.727 58.8238 131.67 59.9497L130.735 58.4993C131.609 57.8047 132.483 57.0882 133.357 56.3587C134.23 55.6291 135.06 54.8908 135.86 54.122C136.65 53.3819 137.395 52.5956 138.092 51.7673C138.412 51.384 138.704 50.9781 138.966 50.5528C139.172 50.2429 139.32 49.898 139.403 49.5349C139.545 48.4744 139.628 47.4068 139.652 46.3371C139.652 45.791 139.652 45.245 139.652 44.6989C139.652 44.1528 139.63 43.598 139.604 43.0475C139.551 41.9467 139.451 40.8632 139.333 39.7449C139.215 38.6265 139.062 37.5213 138.896 36.4859L142.303 35.8394Z" fill="#E58A7B"/>
<path d="M141.774 32.1259C143.64 33.6375 143.194 38.1284 143.194 38.1284L136.903 40.1991C136.903 40.1991 137.192 35.0223 137.506 33.1613C137.873 30.9464 139.935 30.6362 141.774 32.1259Z" fill="#1AB76D"/>
<path opacity="0.2" d="M141.774 32.1259C143.64 33.6375 143.194 38.1284 143.194 38.1284L136.903 40.1991C136.903 40.1991 137.192 35.0223 137.506 33.1613C137.873 30.9464 139.935 30.6362 141.774 32.1259Z" fill="black"/>
<path d="M58.6698 50.8675C58.4258 49.8083 57.8298 48.8631 56.9792 48.1863C56.1286 47.5095 55.0737 47.141 53.9867 47.1411H19.0379C17.7634 47.1411 16.5411 47.6474 15.6399 48.5486C14.7387 49.4498 14.2324 50.6721 14.2324 51.9466V129.629C14.2324 130.904 14.7387 132.126 15.6399 133.027C16.5411 133.928 17.7634 134.435 19.0379 134.435H130C131.275 134.435 132.497 133.928 133.398 133.027C134.3 132.126 134.806 130.904 134.806 129.629V64.3752C134.806 63.1008 134.3 61.8785 133.398 60.9773C132.497 60.0761 131.275 59.5698 130 59.5698H69.6045C67.0662 59.5702 64.6027 58.7098 62.6166 57.1292C60.6306 55.5486 59.2392 53.3412 58.6698 50.8675Z" fill="#1AB76D"/>
<path opacity="0.6" d="M58.6698 50.8675C58.4258 49.8083 57.8298 48.8631 56.9792 48.1863C56.1286 47.5095 55.0737 47.141 53.9867 47.1411H19.0379C17.7634 47.1411 16.5411 47.6474 15.6399 48.5486C14.7387 49.4498 14.2324 50.6721 14.2324 51.9466V129.629C14.2324 130.904 14.7387 132.126 15.6399 133.027C16.5411 133.928 17.7634 134.435 19.0379 134.435H130C131.275 134.435 132.497 133.928 133.398 133.027C134.3 132.126 134.806 130.904 134.806 129.629V64.3752C134.806 63.1008 134.3 61.8785 133.398 60.9773C132.497 60.0761 131.275 59.5698 130 59.5698H69.6045C67.0662 59.5702 64.6027 58.7098 62.6166 57.1292C60.6306 55.5486 59.2392 53.3412 58.6698 50.8675Z" fill="black"/>
<path opacity="0.22" d="M46.333 26.6741L49.4478 36.7612C49.8454 38.045 50.7363 39.1185 51.9249 39.7459C53.1134 40.3733 54.5023 40.5034 55.7867 40.1075L65.8694 36.9927L46.333 26.6741Z" fill="#1AB76D"/>
<path d="M46.3331 26.6741L10.2921 37.8096C9.6559 38.0051 9.06444 38.3241 8.55161 38.7483C8.03877 39.1726 7.61462 39.6938 7.3034 40.2822C6.99219 40.8705 6.80003 41.5144 6.73792 42.1771C6.6758 42.8398 6.74496 43.5082 6.94141 44.1441L27.5175 110.757C27.7139 111.393 28.0337 111.984 28.4586 112.496C28.8834 113.008 29.4051 113.432 29.9937 113.743C30.5824 114.054 31.2265 114.245 31.8892 114.307C32.552 114.369 33.2204 114.3 33.8564 114.103L79.9845 99.8525C80.6203 99.6566 81.2113 99.3373 81.7236 98.9129C82.236 98.4884 82.6597 97.9671 82.9705 97.3788C83.2812 96.7906 83.473 96.1468 83.5349 95.4843C83.5967 94.8219 83.5274 94.1537 83.3308 93.5181L65.8564 36.9927L46.3331 26.6741Z" fill="#1AB76D"/>
<path opacity="0.8" d="M46.3331 26.6741L10.2921 37.8096C9.6559 38.0051 9.06444 38.3241 8.55161 38.7483C8.03877 39.1726 7.61462 39.6938 7.3034 40.2822C6.99219 40.8705 6.80003 41.5144 6.73792 42.1771C6.6758 42.8398 6.74496 43.5082 6.94141 44.1441L27.5175 110.757C27.7139 111.393 28.0337 111.984 28.4586 112.496C28.8834 113.008 29.4051 113.432 29.9937 113.743C30.5824 114.054 31.2265 114.245 31.8892 114.307C32.552 114.369 33.2204 114.3 33.8564 114.103L79.9845 99.8525C80.6203 99.6566 81.2113 99.3373 81.7236 98.9129C82.236 98.4884 82.6597 97.9671 82.9705 97.3788C83.2812 96.7906 83.473 96.1468 83.5349 95.4843C83.5967 94.8219 83.5274 94.1537 83.3308 93.5181L65.8564 36.9927L46.3331 26.6741Z" fill="white"/>
<g opacity="0.28">
<path opacity="0.28" d="M65.725 96.9432L35.739 106.205C35.1782 106.377 34.572 106.32 34.053 106.047C33.534 105.773 33.1443 105.305 32.9693 104.745C32.7985 104.185 32.8566 103.579 33.1308 103.061C33.405 102.543 33.873 102.154 34.4327 101.98L64.4188 92.7144C64.9802 92.5423 65.5868 92.5997 66.106 92.874C66.6251 93.1483 67.0144 93.6172 67.1885 94.1779C67.3593 94.7386 67.3012 95.3442 67.027 95.8623C66.7528 96.3804 66.2847 96.769 65.725 96.9432Z" fill="#1AB76D"/>
</g>
<g opacity="0.28">
<path opacity="0.28" d="M33.4545 42.5889L17.5965 47.4861C17.0357 47.6572 16.4301 47.5998 15.9114 47.3266C15.3927 47.0533 15.0029 46.5863 14.8268 46.027C14.656 45.4657 14.7139 44.8595 14.9881 44.3407C15.2622 43.8219 15.7303 43.4325 16.2903 43.2573L32.1483 38.3601C32.7091 38.1867 33.3158 38.2429 33.8351 38.5165C34.3545 38.7901 34.7439 39.2587 34.918 39.8193C35.0889 40.3806 35.0309 40.9867 34.7568 41.5055C34.4827 42.0244 34.0146 42.4138 33.4545 42.5889Z" fill="#1AB76D"/>
</g>
<g opacity="0.28">
<path opacity="0.28" d="M46.394 47.7832L20.1824 55.8782C19.6228 56.0463 19.0195 55.9869 18.5034 55.7129C17.9873 55.4389 17.6001 54.9724 17.4258 54.4147C17.2537 53.8545 17.3106 53.2489 17.5841 52.7306C17.8576 52.2123 18.3253 51.8235 18.8849 51.6494L45.0965 43.5544C45.6573 43.3821 46.2635 43.4389 46.7825 43.7123C47.3015 43.9858 47.6911 44.4536 47.8662 45.0135C48.0355 45.576 47.9758 46.1826 47.7001 46.7013C47.4244 47.22 46.955 47.6088 46.394 47.7832Z" fill="#1AB76D"/>
</g>
<g opacity="0.28">
<path opacity="0.28" d="M61.0296 52.4533L22.7781 64.2486C22.2179 64.4207 21.6123 64.3638 21.094 64.0903C20.5757 63.8168 20.1869 63.349 20.0127 62.7894C19.8417 62.2287 19.8991 61.623 20.1723 61.1043C20.4456 60.5856 20.9126 60.1958 21.4719 60.0197L59.7234 48.2245C60.2836 48.0536 60.8886 48.1111 61.4066 48.3844C61.9246 48.6577 62.3136 49.1247 62.4887 49.6836C62.6609 50.2444 62.6041 50.8506 62.3307 51.3696C62.0573 51.8886 61.5895 52.2783 61.0296 52.4533Z" fill="#1AB76D"/>
</g>
<g opacity="0.28">
<path opacity="0.28" d="M63.6196 60.8409L41.3834 67.7128C40.8226 67.8835 40.2171 67.8254 39.699 67.5512C39.1809 67.277 38.7923 66.809 38.6181 66.2493C38.4472 65.6891 38.5046 65.084 38.778 64.566C39.0513 64.048 39.5183 63.6591 40.0772 63.4839L62.3134 56.6121C62.8747 56.4425 63.4803 56.501 63.9988 56.7749C64.5173 57.0489 64.9069 57.5163 65.0831 58.0756C65.2538 58.6364 65.1957 59.2419 64.9215 59.76C64.6473 60.2781 64.1793 60.6667 63.6196 60.8409Z" fill="#1AB76D"/>
</g>
<g opacity="0.28">
<path opacity="0.28" d="M31.1876 70.8626L25.373 72.6582C24.8122 72.8304 24.206 72.7736 23.687 72.5002C23.168 72.2267 22.7784 71.7589 22.6033 71.199C22.4312 70.6377 22.4886 70.031 22.7629 69.5119C23.0372 68.9928 23.5061 68.6035 24.0668 68.4293L29.8814 66.6338C30.4422 66.4628 31.0478 66.5202 31.5665 66.7934C32.0852 67.0667 32.475 67.5337 32.6511 68.093C32.8207 68.6543 32.7622 69.2599 32.4883 69.7784C32.2143 70.2969 31.747 70.6865 31.1876 70.8626Z" fill="#1AB76D"/>
</g>
<g opacity="0.28">
<path opacity="0.28" d="M66.2151 69.2331L27.9636 81.0502C27.4028 81.2209 26.7973 81.1628 26.2792 80.8886C25.7611 80.6144 25.3725 80.1464 25.1983 79.5867C25.0261 79.0265 25.0831 78.4209 25.3566 77.9026C25.63 77.3843 26.0978 76.9955 26.6574 76.8214L64.9089 65.0043C65.4691 64.8334 66.0741 64.8909 66.5921 65.1642C67.1101 65.4375 67.4991 65.9045 67.6742 66.4634C67.8464 67.0242 67.7896 67.6304 67.5162 68.1494C67.2428 68.6684 66.775 69.058 66.2151 69.2331Z" fill="#1AB76D"/>
</g>
<g opacity="0.28">
<path opacity="0.28" d="M54.0434 82.1816L30.5535 89.4379C29.9933 89.6088 29.3882 89.5513 28.8702 89.278C28.3522 89.0046 27.9633 88.5376 27.7881 87.9787C27.6171 87.418 27.6744 86.8123 27.9477 86.2936C28.221 85.7749 28.688 85.3851 29.2473 85.2091L52.7372 77.9528C53.2986 77.7819 53.9047 77.8399 54.4235 78.114C54.9423 78.3882 55.3318 78.8563 55.5069 79.4163C55.6789 79.9771 55.6213 80.5831 55.347 81.1015C55.0726 81.62 54.6038 82.0084 54.0434 82.1816Z" fill="#1AB76D"/>
</g>
<g opacity="0.28">
<path opacity="0.28" d="M68.8048 77.6251L62.5358 79.5604C61.9745 79.7312 61.3683 79.6733 60.8495 79.3991C60.3307 79.125 59.9413 78.6569 59.7661 78.0969C59.5954 77.5361 59.6535 76.9306 59.9277 76.4124C60.2019 75.8943 60.6699 75.5058 61.2296 75.3315L67.4986 73.3963C68.0588 73.2241 68.6643 73.2811 69.1826 73.5545C69.701 73.828 70.0898 74.2958 70.2639 74.8554C70.4361 75.4161 70.3793 76.0223 70.1059 76.5413C69.8325 77.0603 69.3647 77.45 68.8048 77.6251Z" fill="#1AB76D"/>
</g>
<g opacity="0.28">
<path opacity="0.28" d="M71.3959 86.0217L33.1531 97.8169C32.5918 97.989 31.9851 97.9316 31.466 97.6573C30.9469 97.383 30.5576 96.9142 30.3834 96.3535C30.2115 95.7927 30.269 95.1866 30.5434 94.6682C30.8177 94.1498 31.2865 93.7614 31.8469 93.5881L70.094 81.7711C70.6554 81.6014 71.261 81.6599 71.7795 81.9339C72.298 82.2078 72.6876 82.6752 72.8637 83.2346C72.9515 83.5139 72.9831 83.8079 72.9567 84.0995C72.9303 84.3911 72.8465 84.6746 72.71 84.9337C72.5736 85.1928 72.3872 85.4223 72.1617 85.6091C71.9361 85.7958 71.6759 85.936 71.3959 86.0217Z" fill="#1AB76D"/>
</g>
<path d="M72.2171 1.62462L83.6541 27.111C83.951 27.7764 83.9724 28.5321 83.7138 29.2132C83.4551 29.8943 82.9373 30.4453 82.2736 30.7457L33.7559 52.5232C33.0907 52.8213 32.3345 52.8434 31.6531 52.5846C30.9717 52.3258 30.4207 51.8072 30.1212 51.1427L18.6798 25.6563C18.3804 24.9907 18.3575 24.2333 18.6164 23.5509C18.8753 22.8684 19.3947 22.3168 20.0603 22.0173L68.578 0.239777C69.2445 -0.0570288 70.0013 -0.0779768 70.6832 0.18151C71.3651 0.440997 71.9165 0.959822 72.2171 1.62462Z" fill="#1AB76D"/>
<path opacity="0.3" d="M72.2171 1.62462L83.6541 27.111C83.951 27.7764 83.9724 28.5321 83.7138 29.2132C83.4551 29.8943 82.9373 30.4453 82.2736 30.7457L33.7559 52.5232C33.0907 52.8213 32.3345 52.8434 31.6531 52.5846C30.9717 52.3258 30.4207 51.8072 30.1212 51.1427L18.6798 25.6563C18.3804 24.9907 18.3575 24.2333 18.6164 23.5509C18.8753 22.8684 19.3947 22.3168 20.0603 22.0173L68.578 0.239777C69.2445 -0.0570288 70.0013 -0.0779768 70.6832 0.18151C71.3651 0.440997 71.9165 0.959822 72.2171 1.62462Z" fill="black"/>
<path d="M64.571 0.365256L63.0205 1.06079L63.1993 1.45938L64.7498 0.76385L64.571 0.365256Z" fill="#1AB76D"/>
<path d="M60.8486 2.0328L56.0137 4.20166L56.1925 4.60025L61.0274 2.4314L60.8486 2.0328Z" fill="#1AB76D"/>
<path d="M18.6368 28.2249L18.2383 28.4038L19.5624 31.3529L19.961 31.174L18.6368 28.2249Z" fill="#1AB76D"/>
<path opacity="0.6" d="M70.5916 0.14802L58.08 24.6559C56.919 26.9274 55.0177 28.7349 52.6903 29.7794C50.3629 30.824 47.7488 31.0431 45.28 30.4006L18.6533 23.4589C18.9265 22.82 19.428 22.306 20.06 22.0173L68.5777 0.23976C69.2133 -0.044437 69.9329 -0.0772181 70.5916 0.14802Z" fill="#1AB76D"/>
<path d="M87.7915 31.5146L50.1429 33.8387C49.4778 33.8783 48.827 34.0486 48.2277 34.3399C47.6285 34.6313 47.0926 35.0379 46.6507 35.5366C46.2088 36.0353 45.8696 36.6163 45.6525 37.2462C45.4354 37.8761 45.3447 38.5427 45.3855 39.2078L49.6798 108.791C49.7199 109.456 49.8909 110.107 50.183 110.707C50.4752 111.306 50.8827 111.842 51.3823 112.283C51.8818 112.725 52.4636 113.064 53.0943 113.28C53.725 113.496 54.3922 113.586 55.0576 113.544L103.243 110.569C103.908 110.529 104.558 110.358 105.156 110.066C105.754 109.775 106.289 109.368 106.73 108.869C107.17 108.37 107.508 107.789 107.724 107.16C107.94 106.53 108.03 105.864 107.988 105.2L104.362 46.1495L87.7915 31.5146Z" fill="#1AB76D"/>
<path opacity="0.8" d="M87.7915 31.5146L50.1429 33.8387C49.4778 33.8783 48.827 34.0486 48.2277 34.3399C47.6285 34.6313 47.0926 35.0379 46.6507 35.5366C46.2088 36.0353 45.8696 36.6163 45.6525 37.2462C45.4354 37.8761 45.3447 38.5427 45.3855 39.2078L49.6798 108.791C49.7199 109.456 49.8909 110.107 50.183 110.707C50.4752 111.306 50.8827 111.842 51.3823 112.283C51.8818 112.725 52.4636 113.064 53.0943 113.28C53.725 113.496 54.3922 113.586 55.0576 113.544L103.243 110.569C103.908 110.529 104.558 110.358 105.156 110.066C105.754 109.775 106.289 109.368 106.73 108.869C107.17 108.37 107.508 107.789 107.724 107.16C107.94 106.53 108.03 105.864 107.988 105.2L104.362 46.1495L87.7915 31.5146Z" fill="white"/>
<g opacity="0.22">
<path opacity="0.22" d="M90.067 104.37L58.7398 106.305C58.1545 106.339 57.5798 106.139 57.1411 105.75C56.7024 105.362 56.4353 104.815 56.3982 104.23C56.3646 103.645 56.5633 103.07 56.9511 102.631C57.3388 102.192 57.8843 101.923 58.4689 101.884L89.7962 99.9531C90.3814 99.9184 90.9566 100.117 91.3962 100.505C91.8357 100.893 92.1039 101.439 92.1421 102.024C92.1768 102.61 91.9779 103.186 91.589 103.625C91.2001 104.065 90.6528 104.333 90.067 104.37Z" fill="#1AB76D"/>
</g>
<g opacity="0.22">
<path opacity="0.22" d="M71.5271 43.9432L54.957 44.9567C54.372 44.9903 53.7975 44.7916 53.3582 44.4038C52.9189 44.0161 52.6504 43.4706 52.6111 42.886C52.5775 42.3003 52.7768 41.7251 53.1655 41.2857C53.5542 40.8463 54.1007 40.5783 54.6861 40.5401L71.2563 39.5178C71.8411 39.4831 72.4158 39.6815 72.8546 40.0696C73.2935 40.4577 73.5607 41.0039 73.5978 41.5885C73.6349 42.1752 73.4377 42.7527 73.0495 43.1942C72.6613 43.6356 72.1138 43.905 71.5271 43.9432Z" fill="#1AB76D"/>
</g>
<g opacity="0.22">
<path opacity="0.22" d="M82.8763 52.0426L55.4983 53.7289C54.9127 53.7648 54.3369 53.5669 53.8971 53.1787C53.4572 52.7905 53.1894 52.2437 53.1523 51.6582C53.1176 51.0722 53.3165 50.4964 53.7054 50.0567C54.0943 49.617 54.6416 49.3494 55.2274 49.3123L82.6011 47.626C83.1866 47.5901 83.7625 47.788 84.2023 48.1762C84.6421 48.5644 84.9099 49.1112 84.947 49.6967C84.9817 50.282 84.7834 50.8572 84.3955 51.2967C84.0075 51.7363 83.4613 52.0044 82.8763 52.0426Z" fill="#1AB76D"/>
</g>
<g opacity="0.22">
<path opacity="0.22" d="M95.9954 60.0328L56.0402 62.4967C55.4531 62.5326 54.8756 62.3344 54.4343 61.9455C53.993 61.5566 53.7237 61.0086 53.6855 60.4216C53.6508 59.8368 53.8493 59.2621 54.2374 58.8232C54.6254 58.3844 55.1716 58.1171 55.7562 58.08L95.7159 55.6118C96.3011 55.5783 96.8758 55.7777 97.3145 56.1665C97.7532 56.5553 98.0203 57.1019 98.0574 57.6869C98.0922 58.2707 97.8951 58.8447 97.509 59.284C97.1229 59.7233 96.5789 59.9924 95.9954 60.0328Z" fill="#1AB76D"/>
</g>
<g opacity="0.22">
<path opacity="0.22" d="M96.5369 68.7963L73.3091 70.2292C72.7238 70.2639 72.1486 70.0656 71.7091 69.6776C71.2695 69.2897 71.0013 68.7435 70.9631 68.1585C70.9273 67.5729 71.1251 66.9971 71.5133 66.5573C71.9016 66.1175 72.4484 65.8496 73.0338 65.8125L96.2617 64.3796C96.8472 64.3438 97.4231 64.5416 97.8629 64.9298C98.3027 65.3181 98.5706 65.8649 98.6076 66.4504C98.6424 67.0356 98.4441 67.6108 98.0561 68.0504C97.6681 68.4899 97.122 68.7581 96.5369 68.7963Z" fill="#1AB76D"/>
</g>
<g opacity="0.22">
<path opacity="0.22" d="M62.6546 70.8844L56.5779 71.2601C55.9931 71.2948 55.4184 71.0964 54.9795 70.7083C54.5406 70.3202 54.2734 69.7741 54.2363 69.1894C54.2016 68.6041 54.3999 68.0289 54.7879 67.5894C55.1759 67.1498 55.722 66.8817 56.307 66.8435L62.3838 66.4677C62.9695 66.4342 63.5446 66.6335 63.9841 67.0222C64.4235 67.4109 64.6915 67.9574 64.7297 68.5428C64.7632 69.1281 64.5638 69.7028 64.175 70.1415C63.7862 70.5802 63.2396 70.8473 62.6546 70.8844Z" fill="#1AB76D"/>
</g>
<g opacity="0.22">
<path opacity="0.22" d="M97.0787 77.5597L57.1191 80.0236C56.5338 80.0583 55.9586 79.86 55.5191 79.472C55.0795 79.0841 54.8114 78.5379 54.7732 77.9529C54.7396 77.3672 54.9389 76.792 55.3276 76.3526C55.7163 75.9132 56.2629 75.6452 56.8483 75.6069L96.8035 73.143C97.3895 73.1084 97.9653 73.3072 98.405 73.6961C98.8446 74.0851 99.1123 74.6323 99.1494 75.2181C99.1841 75.8029 98.9857 76.3777 98.5976 76.8165C98.2095 77.2554 97.6634 77.5226 97.0787 77.5597Z" fill="#1AB76D"/>
</g>
<g opacity="0.22">
<path opacity="0.22" d="M82.1995 87.2755L57.6611 88.7914C57.0754 88.8249 56.5002 88.6256 56.0608 88.237C55.6214 87.8483 55.3534 87.3017 55.3152 86.7163C55.2817 86.1311 55.4811 85.5564 55.8699 85.1177C56.2587 84.679 56.8052 84.4119 57.3902 84.3748L81.9287 82.8589C82.5139 82.8254 83.0886 83.0248 83.5273 83.4136C83.9661 83.8024 84.2331 84.3489 84.2703 84.9339C84.3061 85.519 84.1081 86.0944 83.7198 86.5335C83.3315 86.9726 82.7846 87.2395 82.1995 87.2755Z" fill="#1AB76D"/>
</g>
<g opacity="0.22">
<path opacity="0.22" d="M97.6164 86.3273L91.0635 86.7292C90.4787 86.7639 89.904 86.5655 89.4651 86.1774C89.0262 85.7893 88.759 85.2432 88.7219 84.6585C88.686 84.073 88.8839 83.4971 89.2721 83.0573C89.6603 82.6175 90.2072 82.3496 90.7926 82.3126L97.3455 81.9106C97.9311 81.8748 98.5069 82.0726 98.9467 82.4609C99.3866 82.8491 99.6544 83.3959 99.6915 83.9814C99.725 84.567 99.5257 85.1422 99.137 85.5817C98.7484 86.0211 98.2018 86.2891 97.6164 86.3273Z" fill="#1AB76D"/>
</g>
<g opacity="0.22">
<path opacity="0.22" d="M98.1576 95.0907L58.2024 97.5546C57.6171 97.5893 57.0419 97.391 56.6024 97.0031C56.1628 96.6151 55.8946 96.0689 55.8564 95.4839C55.8217 94.8986 56.02 94.3234 56.408 93.8839C56.796 93.4443 57.3421 93.1762 57.9272 93.138L97.8868 90.6741C98.4716 90.6394 99.0463 90.8378 99.4851 91.2259C99.924 91.614 100.191 92.1601 100.228 92.7448C100.264 93.3303 100.066 93.9062 99.6781 94.346C99.2899 94.7858 98.7431 95.0536 98.1576 95.0907Z" fill="#1AB76D"/>
</g>
<path opacity="0.22" d="M87.791 31.5146L88.4419 42.0517C88.4826 42.7161 88.6537 43.3659 88.9455 43.9642C89.2373 44.5624 89.6442 45.0973 90.1428 45.5383C90.6413 45.9792 91.2219 46.3177 91.8513 46.5342C92.4807 46.7508 93.1466 46.8412 93.8109 46.8004L104.361 46.1495L87.791 31.5146Z" fill="#1AB76D"/>
<path d="M75.4631 57.8006C75.4565 57.2956 75.3487 56.7971 75.1462 56.3345C74.9437 55.8719 74.6505 55.4546 74.284 55.1072C73.9175 54.7598 73.485 54.4894 73.0122 54.312C72.5395 54.1345 72.0359 54.0537 71.5313 54.0742H36.5388C33.8871 54.0742 31.2965 56.2279 30.7985 58.8796L16.9893 129.629C16.4738 132.281 18.2038 134.435 20.8555 134.435H131.818C134.47 134.435 137.039 132.285 137.558 129.629L148.947 71.3083C149.463 68.6522 147.733 66.5028 145.081 66.5028H84.7027C79.4603 66.5028 75.6422 62.8944 75.4631 57.8006Z" fill="#1AB76D"/>
</svg>
