<svg width="189" height="140" viewBox="0 0 189 140" fill="none" xmlns="http://www.w3.org/2000/svg">
<path d="M94.2914 140C146.367 140 188.583 137.535 188.583 134.495C188.583 131.454 146.367 128.99 94.2914 128.99C42.2157 128.99 0 131.454 0 134.495C0 137.535 42.2157 140 94.2914 140Z" fill="#F5F5F5"/>
<path d="M173.872 4.15796H100.574C100.574 4.15796 87.371 16.3158 87.371 45.874C87.371 71.2936 97.3842 105.759 93.625 119.867C90.7898 130.512 77.0417 132.341 70.4521 132.593H140.219C140.219 132.593 163.163 133.979 166.922 119.867C170.681 105.754 160.668 71.2936 160.668 45.8691C160.668 16.2964 173.872 4.15796 173.872 4.15796Z" fill="#1AB76D"/>
<path opacity="0.7" d="M173.872 4.15796H100.574C100.574 4.15796 87.371 16.3158 87.371 45.874C87.371 71.2936 97.3842 105.759 93.625 119.867C90.7898 130.512 77.0417 132.341 70.4521 132.593H140.219C140.219 132.593 163.163 133.979 166.922 119.867C170.681 105.754 160.668 71.2936 160.668 45.8691C160.668 16.2964 173.872 4.15796 173.872 4.15796Z" fill="white"/>
<g opacity="0.8">
<path opacity="0.8" d="M153.933 35.3306H95.3125C96.9708 22.3266 101.44 14.7596 103.906 11.4526H160.43C157.658 17.2398 155.042 25.1229 153.933 35.3306Z" fill="#1AB76D"/>
<path opacity="0.3" d="M153.442 42.2266H94.7393C94.7879 41.0448 94.856 39.8971 94.9532 38.7883H153.622C153.541 39.9069 153.481 41.0529 153.442 42.2266Z" fill="#1AB76D"/>
<path opacity="0.3" d="M113.146 49.1177H94.7195C94.6871 48.0186 94.6693 46.9374 94.666 45.874V45.6843H113.097V45.8691C113.097 46.9439 113.112 48.0284 113.146 49.1177Z" fill="#1AB76D"/>
<path opacity="0.3" d="M153.792 56.0088H95.1328C95.0307 54.8514 94.948 53.7037 94.8848 52.5754H153.568C153.627 53.7134 153.701 54.8579 153.792 56.0088Z" fill="#1AB76D"/>
<path opacity="0.3" d="M154.439 62.8901H95.8285C95.6924 61.7392 95.5659 60.5931 95.4492 59.4519H154.108C154.191 60.6093 154.313 61.757 154.439 62.8901Z" fill="#1AB76D"/>
<path opacity="0.3" d="M155.285 69.7957H96.7228C96.5623 68.648 96.4115 67.5003 96.2656 66.3623H154.847C154.983 67.5068 155.129 68.6512 155.285 69.7957Z" fill="#1AB76D"/>
<path opacity="0.3" d="M156.253 76.6868H97.6963C97.5277 75.5391 97.3656 74.3946 97.21 73.2534H155.762C155.923 74.3963 156.088 75.5342 156.253 76.6868Z" fill="#1AB76D"/>
<path opacity="0.3" d="M157.288 83.5828H98.7508C98.6584 82.9554 98.5612 82.3184 98.4639 81.6813L98.2305 80.1445H156.768C156.943 81.2922 157.113 82.4399 157.288 83.5828Z" fill="#1AB76D"/>
<path opacity="0.3" d="M99.7724 90.4739C99.6103 89.3392 99.4482 88.1947 99.2861 87.0405H157.814C157.984 88.1882 158.159 89.3311 158.325 90.4739H99.7724Z" fill="#1AB76D"/>
<path opacity="0.3" d="M100.701 97.365C100.565 96.2416 100.414 95.0939 100.259 93.9316H149.085C149.25 95.0891 149.406 96.2368 149.571 97.365H100.701Z" fill="#1AB76D"/>
<path opacity="0.3" d="M101.421 104.261C101.327 103.139 101.22 101.993 101.1 100.823H159.71C159.841 101.999 159.963 103.147 160.065 104.261H101.421Z" fill="#1AB76D"/>
<path opacity="0.3" d="M101.756 111.152C101.756 110.043 101.713 108.895 101.649 107.719H132.574C132.652 108.92 132.696 110.067 132.71 111.152H101.756Z" fill="#1AB76D"/>
</g>
<path d="M145.841 128.873C142.12 129.549 138.351 129.034 134.612 128.873C132.818 128.757 131.018 128.804 129.233 129.014C127.482 129.248 125.741 129.705 123.976 129.549C124.56 129.236 125.109 128.863 125.615 128.436C125.637 128.413 125.654 128.386 125.662 128.355C125.671 128.325 125.671 128.293 125.663 128.262C125.655 128.232 125.639 128.204 125.617 128.181C125.595 128.159 125.567 128.143 125.537 128.134C120.047 126.189 115.047 131.451 109.576 130.225C111.128 129.077 113.311 129.053 114.634 127.546C114.658 127.52 114.675 127.487 114.681 127.452C114.687 127.416 114.683 127.38 114.669 127.347C114.656 127.314 114.632 127.286 114.603 127.266C114.573 127.246 114.538 127.235 114.503 127.234C109.61 127.137 104.99 129.029 100.127 129.462C99.8938 129.462 99.8938 129.846 100.127 129.826C104.82 129.418 109.319 127.623 114.05 127.584C112.635 128.849 110.476 128.893 109.036 130.167C109.014 130.189 108.998 130.217 108.99 130.248C108.982 130.279 108.981 130.311 108.989 130.342C108.997 130.373 109.013 130.401 109.034 130.424C109.056 130.447 109.084 130.464 109.114 130.473C114.629 131.995 119.648 126.733 125.095 128.358C124.527 128.803 123.908 129.181 123.251 129.481C123.221 129.5 123.196 129.527 123.181 129.559C123.165 129.591 123.159 129.628 123.164 129.663C123.168 129.699 123.183 129.732 123.207 129.759C123.23 129.787 123.261 129.807 123.295 129.817C125.09 130.118 126.845 129.734 128.615 129.452C130.598 129.168 132.604 129.089 134.602 129.219C138.381 129.398 142.174 129.909 145.928 129.219C146.176 129.184 146.079 128.829 145.841 128.873Z" fill="#1AB76D"/>
<path d="M46.5747 22.103C46.8811 22.4969 47.275 22.9589 47.6348 23.3869C47.9947 23.8149 48.3886 24.2477 48.7777 24.6659C49.5607 25.5024 50.3533 26.3242 51.2093 27.0975C52.7965 28.6045 54.5994 29.8665 56.5587 30.8421C56.797 30.9491 57.045 31.0463 57.2639 31.1339C57.3721 31.1769 57.4824 31.2142 57.5945 31.2457C57.6983 31.2867 57.8058 31.3177 57.9155 31.3381C58.3822 31.4581 58.8594 31.533 59.3404 31.5618C60.4171 31.6142 61.4962 31.5522 62.5598 31.377C63.6894 31.2047 64.8081 30.9677 65.9105 30.667C67.029 30.3752 68.1719 30.0154 69.2369 29.6409L70.2095 31.5861C68.0476 32.9376 65.7067 33.9787 63.2552 34.6791C61.9627 35.0491 60.6304 35.263 59.2869 35.3162C58.5594 35.3454 57.8308 35.2981 57.1131 35.1751C56.9283 35.146 56.7386 35.1022 56.5538 35.0584C56.369 35.0147 56.1745 34.966 56.014 34.9125C55.6736 34.8104 55.3429 34.6986 55.0414 34.5721C52.5661 33.5542 50.2882 32.1108 48.3108 30.3071C47.3459 29.4709 46.4255 28.5846 45.5534 27.6519C45.1206 27.1655 44.6975 26.7133 44.289 26.227C43.8805 25.7407 43.4915 25.2543 43.0684 24.6951L46.5747 22.103Z" fill="#FFB573"/>
<path d="M41.6286 20.7266C41.5216 23.45 42.6012 28.3618 42.6012 28.3618L49.3415 27.5448C49.3415 27.5448 49.5895 20.357 48.2813 18.6209C46.0686 15.7176 41.7307 18.1492 41.6286 20.7266Z" fill="#1AB76D"/>
<path d="M68.332 30.3313L71.4882 27.4426L71.8919 30.555C71.8919 30.555 70.5837 32.3106 69.1004 31.5714L68.332 30.3313Z" fill="#FFB573"/>
<path d="M73.0737 27.6128L74.411 29.3636L71.8919 30.555L71.4883 27.4426L73.0737 27.6128Z" fill="#FFB573"/>
<path d="M72.2765 19.7394C72.612 19.7394 72.7968 19.7394 73.0351 19.7394C73.1371 19.7324 73.2395 19.7324 73.3415 19.7394L73.5944 19.7734C73.8127 19.7991 74.0205 19.8812 74.1974 20.0117C74.2835 20.1131 74.3406 20.2357 74.3628 20.3667L74.4746 20.7363L74.9269 22.1953L75.8314 25.1472L77.6357 31.0559C78.8271 34.9951 80.0672 38.9245 81.2149 42.8733C83.5736 50.7614 85.8057 58.6785 87.999 66.6103C90.1923 74.5421 92.2543 82.5079 94.3746 90.4397C96.4949 98.3715 98.3915 106.396 99.0675 114.721C99.092 115.278 98.9245 115.826 98.5932 116.274C98.2618 116.722 97.7867 117.043 97.2473 117.182C96.7079 117.322 96.137 117.272 95.63 117.041C95.123 116.81 94.7107 116.411 94.4621 115.913C91.0093 108.307 88.7528 100.395 86.7784 92.4093C84.8039 84.424 82.7079 76.5068 80.7724 68.5264C78.8369 60.546 76.9451 52.5218 75.1749 44.483C74.2655 40.471 73.4388 36.4346 72.5683 32.4127L71.2795 26.3727L70.6328 23.3527L70.3118 21.8403L70.2291 21.4658C70.185 21.3393 70.1749 21.2035 70.1999 21.0719C70.2946 20.879 70.4348 20.7121 70.6084 20.5856L70.8175 20.43C70.8977 20.3688 70.9823 20.3136 71.0704 20.2646C71.2795 20.143 71.4303 20.0409 71.7318 19.895C71.9015 19.8081 72.0865 19.7552 72.2765 19.7394Z" fill="#263238"/>
<path d="M98.6008 115.976C98.5644 115.845 98.4777 115.733 98.3594 115.664C98.2411 115.596 98.1008 115.577 97.9686 115.611L96.8987 115.889L95.8288 116.166C95.6965 116.2 95.5831 116.285 95.513 116.403C95.4429 116.52 95.4219 116.66 95.4544 116.793C96.1206 119.857 95.4544 122.05 96.1644 124.744C96.8987 127.58 100.094 129.034 100.094 129.034L99.9917 127.823L100.478 128.932C100.478 128.932 102.564 126.111 101.83 123.276C101.139 120.582 99.5054 118.977 98.6008 115.976Z" fill="#1AB76D"/>
<path opacity="0.3" d="M98.6008 115.976C98.5644 115.845 98.4777 115.733 98.3594 115.664C98.2411 115.596 98.1008 115.577 97.9686 115.611L96.8987 115.889L95.8288 116.166C95.6965 116.2 95.5831 116.285 95.513 116.403C95.4429 116.52 95.4219 116.66 95.4544 116.793C96.1206 119.857 95.4544 122.05 96.1644 124.744C96.8987 127.58 100.094 129.034 100.094 129.034L99.9917 127.823L100.478 128.932C100.478 128.932 102.564 126.111 101.83 123.276C101.139 120.582 99.5054 118.977 98.6008 115.976Z" fill="white"/>
<path d="M99.4324 123.008C99.4638 123.136 99.4567 123.27 99.412 123.394C99.3673 123.517 99.287 123.625 99.1812 123.703C99.0755 123.781 98.9489 123.827 98.8176 123.833C98.6862 123.839 98.5559 123.807 98.4431 123.739C98.3303 123.671 98.24 123.572 98.1836 123.453C98.1271 123.334 98.1071 123.202 98.1261 123.071C98.145 122.941 98.202 122.82 98.29 122.722C98.3779 122.624 98.4928 122.555 98.6202 122.522C98.7924 122.479 98.9744 122.506 99.1266 122.598C99.2788 122.689 99.3887 122.836 99.4324 123.008Z" fill="#263238"/>
<path d="M100.031 127.969C100.012 127.974 99.9915 127.976 99.9716 127.974C99.9517 127.972 99.9324 127.965 99.9151 127.955C99.8978 127.945 99.8827 127.932 99.8708 127.916C99.8589 127.899 99.8505 127.881 99.846 127.862L98.6399 123.217C98.6348 123.198 98.6335 123.178 98.6361 123.158C98.6387 123.139 98.6451 123.12 98.6551 123.103C98.665 123.085 98.6782 123.07 98.694 123.058C98.7097 123.046 98.7277 123.038 98.7469 123.032C98.7661 123.027 98.7862 123.025 98.8061 123.027C98.826 123.029 98.8453 123.036 98.8626 123.046C98.8799 123.056 98.895 123.069 98.9069 123.085C98.9188 123.102 98.9272 123.12 98.9317 123.139L100.138 127.784C100.143 127.803 100.144 127.823 100.142 127.843C100.139 127.862 100.133 127.881 100.123 127.898C100.113 127.916 100.099 127.931 100.084 127.943C100.068 127.955 100.05 127.963 100.031 127.969Z" fill="#263238"/>
<path d="M96.0908 99.2761L89.5353 100.973C89.3534 101.019 89.1609 100.991 88.9996 100.895C88.8383 100.8 88.7215 100.644 88.6745 100.463C88.6278 100.284 88.6524 100.094 88.7432 99.9338C88.834 99.7731 88.9838 99.6541 89.1608 99.6019L95.7503 97.9047C95.9289 97.858 96.1186 97.8827 96.2793 97.9734C96.44 98.0642 96.559 98.214 96.6111 98.391C96.6366 98.4833 96.6433 98.5798 96.6308 98.6748C96.6183 98.7697 96.5869 98.8612 96.5383 98.9437C96.4898 99.0263 96.4252 99.0983 96.3483 99.1554C96.2714 99.2124 96.1838 99.2535 96.0908 99.2761Z" fill="#1AB76D"/>
<path d="M62.8127 10.2711C62.6959 10.5628 62.7592 10.8692 62.9488 10.9519C63.1385 11.0346 63.3914 10.8644 63.5081 10.5726C63.6248 10.2808 63.5664 9.97441 63.3719 9.89173C63.1774 9.80906 62.9342 9.97927 62.8127 10.2711Z" fill="#263238"/>
<path d="M63.2842 9.88184L64.0671 9.98397C64.0671 9.98397 63.4836 10.3681 63.2842 9.88184Z" fill="#263238"/>
<path d="M62.9488 10.6599C62.9411 11.4428 63.0393 12.2231 63.2406 12.9796C63.0466 13.021 62.846 13.0194 62.6527 12.9749C62.4595 12.9303 62.2783 12.844 62.1221 12.7219L62.9488 10.6599Z" fill="#ED893E"/>
<path d="M63.9894 8.49109C63.959 8.48525 63.9306 8.47187 63.9067 8.45219C63.7318 8.29227 63.5223 8.17485 63.2946 8.10906C63.0668 8.04327 62.827 8.03089 62.5937 8.07286C62.546 8.08488 62.4955 8.0779 62.4529 8.05341C62.4102 8.02891 62.3788 7.9888 62.3651 7.94156C62.3531 7.89387 62.3601 7.84338 62.3846 7.80074C62.4091 7.75809 62.4492 7.72663 62.4964 7.71299C62.7886 7.65507 63.0903 7.66625 63.3773 7.74562C63.6644 7.82499 63.929 7.97036 64.1499 8.17012C64.1672 8.18731 64.181 8.20776 64.1904 8.2303C64.1998 8.25283 64.2047 8.27701 64.2047 8.30143C64.2047 8.32585 64.1998 8.35003 64.1904 8.37256C64.181 8.3951 64.1672 8.41555 64.1499 8.43274C64.1301 8.455 64.105 8.47198 64.077 8.48217C64.049 8.49235 64.0189 8.49542 63.9894 8.49109Z" fill="#263238"/>
<path d="M52.5031 10.1201C52.7122 12.4885 51.9244 16.3644 50.1348 17.6823C50.1348 17.6823 51.4819 20.1722 55.7955 20.7509C60.537 21.388 58.3097 18.7181 58.3097 18.7181C55.7857 17.7455 56.0581 15.8635 56.6951 14.1322L52.5031 10.1201Z" fill="#FFB573"/>
<path d="M65.4238 22.7595C65.7982 24.9674 66.2602 27.2579 66.7417 29.4901C66.9994 30.6038 67.2572 31.7223 67.5587 32.8165C67.8602 33.9107 68.1617 35.0049 68.4973 36.0797C68.6821 36.6097 68.8474 37.1496 69.042 37.665L69.3337 38.4431L69.4018 38.6328V38.6912C69.4115 38.721 69.4229 38.7502 69.4359 38.7787C69.5361 38.9521 69.7002 39.0795 69.893 39.1337C70.2777 39.2707 70.6812 39.3478 71.0893 39.3623C72.1329 39.3911 73.1765 39.3063 74.2017 39.1094C75.2765 38.9149 76.4096 38.6523 77.4649 38.3605L78.3549 40.33C77.8187 40.6492 77.2668 40.9414 76.7014 41.2054C76.1427 41.4792 75.5696 41.7227 74.9847 41.9349C73.7601 42.4131 72.4755 42.7207 71.1671 42.8491C70.3986 42.919 69.6238 42.8665 68.8717 42.6935C67.908 42.4738 67.0404 41.9504 66.3964 41.2005C66.2299 40.9992 66.0802 40.7845 65.949 40.5586C65.8809 40.4468 65.8274 40.33 65.7691 40.2182L65.6767 39.9993L65.2973 39.1483C65.0493 38.5793 64.811 38.0103 64.6019 37.4365C64.1837 36.2888 63.7849 35.1362 63.4396 33.9788C63.0943 32.8214 62.7831 31.6542 62.467 30.487C61.8883 28.143 61.4166 25.8233 61.0664 23.3966L65.4238 22.7595Z" fill="#FFB573"/>
<path d="M76.9979 38.4967L78.875 37.0085L79.7212 39.8972C79.7212 39.8972 77.1535 41.755 76.4678 39.5714L76.9979 38.4967Z" fill="#FFB573"/>
<path d="M80.5723 37.5192L81.2434 39.6298L79.7212 39.8972L78.8799 37.0085L80.5723 37.5192Z" fill="#FFB573"/>
<path d="M45.5 130.201L49.4246 130.493L50.5868 121.481L46.6623 121.189L45.5 130.201Z" fill="#FFB573"/>
<path d="M20.3672 118.753L23.7665 120.82L29.4224 113.758L26.023 111.692L20.3672 118.753Z" fill="#FFB573"/>
<path d="M26.1402 121.86C26.0919 121.868 26.0427 121.868 25.9943 121.86C25.508 121.86 24.9293 121.102 24.6375 120.654C24.6268 120.64 24.6211 120.622 24.6211 120.603C24.6211 120.585 24.6268 120.567 24.6375 120.552C24.6469 120.537 24.6607 120.524 24.6771 120.516C24.6936 120.509 24.7119 120.506 24.7299 120.509C24.8904 120.543 26.2959 120.839 26.4807 121.306C26.5005 121.358 26.5064 121.414 26.4979 121.468C26.4893 121.523 26.4666 121.574 26.432 121.617C26.3668 121.73 26.2633 121.817 26.1402 121.86ZM24.9245 120.757C25.3378 121.34 25.7317 121.685 25.9992 121.69C26.0574 121.691 26.1148 121.676 26.1652 121.647C26.2157 121.618 26.2575 121.576 26.2861 121.525C26.2991 121.505 26.306 121.481 26.306 121.457C26.306 121.433 26.2991 121.409 26.2861 121.389C26.2083 121.141 25.4837 120.893 24.9245 120.761V120.757Z" fill="#1AB76D"/>
<path d="M25.9303 120.645C25.5262 120.755 25.1033 120.776 24.6902 120.708C24.6748 120.703 24.661 120.694 24.6499 120.682C24.6389 120.67 24.631 120.656 24.627 120.64C24.6193 120.627 24.6152 120.612 24.6152 120.596C24.6152 120.581 24.6193 120.566 24.627 120.552C24.6561 120.518 25.4294 119.726 25.9984 119.75C26.0718 119.751 26.1441 119.769 26.2098 119.801C26.2755 119.834 26.3329 119.882 26.3777 119.94C26.4304 119.992 26.4638 120.06 26.4727 120.133C26.4815 120.206 26.4652 120.281 26.4263 120.343C26.2977 120.495 26.1237 120.6 25.9303 120.645ZM24.909 120.557C25.3953 120.611 26.1443 120.47 26.295 120.246C26.295 120.207 26.3339 120.154 26.2561 120.056C26.2274 120.019 26.1906 119.989 26.1485 119.968C26.1064 119.947 26.06 119.935 26.013 119.935C25.5893 120.023 25.2036 120.24 24.909 120.557Z" fill="#1AB76D"/>
<path d="M24.7877 120.061L21.5634 116.958C21.5101 116.904 21.4386 116.87 21.3623 116.865C21.2861 116.86 21.2105 116.883 21.1501 116.929L18.3975 119.05C18.3312 119.108 18.2781 119.181 18.2417 119.262C18.2053 119.342 18.1865 119.43 18.1865 119.519C18.1865 119.608 18.2053 119.695 18.2417 119.776C18.2781 119.857 18.3312 119.929 18.3975 119.988C19.5404 121.053 20.1434 121.51 21.5586 122.877C22.4339 123.718 23.6206 125.031 24.8266 126.194C26.0327 127.356 27.2095 126.257 26.8108 125.668C25.0114 123.032 25.2789 122.045 25.1184 120.698C25.0841 120.454 24.9674 120.23 24.7877 120.061Z" fill="#263238"/>
<path d="M51.1264 130.619C50.7111 130.611 50.2975 130.564 49.8911 130.478C49.8724 130.474 49.8554 130.465 49.8423 130.451C49.8292 130.437 49.8208 130.419 49.8182 130.4C49.8157 130.381 49.819 130.361 49.8277 130.344C49.8363 130.327 49.85 130.312 49.8668 130.303C50.0468 130.21 51.6419 129.408 52.1087 129.68C52.1536 129.703 52.1913 129.738 52.2179 129.781C52.2445 129.824 52.2589 129.873 52.2595 129.924C52.2695 130.008 52.2583 130.094 52.2269 130.173C52.1955 130.251 52.1448 130.321 52.0796 130.376C51.7984 130.562 51.4625 130.648 51.1264 130.619ZM50.2024 130.347C51.068 130.488 51.7148 130.454 51.958 130.24C52.0009 130.203 52.034 130.156 52.0544 130.104C52.0748 130.051 52.0818 129.994 52.0747 129.938C52.0761 129.918 52.0718 129.899 52.0623 129.882C52.0528 129.864 52.0385 129.85 52.0212 129.841C51.7586 129.695 50.8589 130.035 50.2024 130.347Z" fill="#1AB76D"/>
<path d="M49.9109 130.488C49.8934 130.493 49.8749 130.493 49.8574 130.488C49.8431 130.479 49.8318 130.465 49.8249 130.45C49.818 130.434 49.8158 130.417 49.8185 130.4C49.8185 130.332 50.0082 128.727 50.8884 128.727H50.9613C51.2191 128.752 51.292 128.878 51.3066 128.985C51.3796 129.428 50.4264 130.279 49.9498 130.493L49.9109 130.488ZM50.8835 128.898C50.3194 128.898 50.0957 129.831 50.0276 130.23C50.5139 129.938 51.1607 129.257 51.117 129.004C51.117 128.98 51.117 128.917 50.937 128.902L50.8835 128.898Z" fill="#1AB76D"/>
<path d="M49.6676 129.933H45.2567C45.1804 129.933 45.1064 129.96 45.0478 130.009C44.9891 130.058 44.9495 130.126 44.9358 130.201L44.3425 133.688C44.3307 133.775 44.3377 133.864 44.3631 133.948C44.3885 134.033 44.4317 134.111 44.4897 134.177C44.5478 134.243 44.6193 134.297 44.6996 134.333C44.7799 134.369 44.8671 134.388 44.9552 134.388C46.492 134.388 47.236 134.271 49.1764 134.271C50.3679 134.271 52.8335 134.393 54.4821 134.393C56.1307 134.393 56.262 132.764 55.5763 132.618C52.5174 131.956 51.3308 131.042 50.3193 130.186C50.1388 130.028 49.9079 129.938 49.6676 129.933Z" fill="#263238"/>
<path opacity="0.2" d="M50.5862 121.481L49.9394 126.49L46.0586 125.839L46.6616 121.194L50.5862 121.481Z" fill="black"/>
<path opacity="0.2" d="M26.0176 111.692L29.4218 113.763L27.0777 116.681L23.6055 114.702L26.0176 111.692Z" fill="black"/>
<path d="M43.5207 41.3269L59.4085 43.4619C65.5653 21.179 63.7513 20.5808 63.7513 20.5808C63.0512 20.2471 62.328 19.9643 61.5872 19.7346C60.8383 19.4623 60.0813 19.2143 59.3161 18.9905C57.7877 18.5369 56.2336 18.1748 54.6621 17.9061C51.612 17.3816 48.5119 17.207 45.4222 17.3857C45.1125 17.4073 44.8117 17.4986 44.5423 17.6527C44.2728 17.8068 44.0416 18.0198 43.866 18.2757C43.7999 18.3706 43.7429 18.4716 43.6957 18.5772C43.5229 18.9473 43.4555 19.3579 43.5012 19.7638C44.8434 31.4742 44.4106 35.3258 43.5207 41.3269Z" fill="#1AB76D"/>
<path opacity="0.2" d="M60.9549 27.3893C60.642 29.6949 60.9388 32.0424 61.8157 34.1977C62.871 29.85 63.4448 26.9029 63.7269 24.8604C62.516 24.8069 61.2564 25.2738 60.9549 27.3893Z" fill="black"/>
<path d="M63.6107 20.503C66.3341 22.0592 68.2258 25.7698 68.7948 27.9242L62.9979 33.225C62.9979 33.225 59.9925 26.2367 60.2357 24.0677C60.4788 21.8988 62.5846 19.9146 63.6107 20.503Z" fill="#1AB76D"/>
<path d="M53.3637 5.23284C52.1431 8.9191 51.5498 10.451 52.6197 13.0771C54.2342 17.0308 59.0147 17.8673 61.3101 14.6527C63.3769 11.7592 65.0256 6.21519 62.0834 3.26813C61.4651 2.61061 60.686 2.12573 59.823 1.86137C58.96 1.59701 58.043 1.5623 57.1626 1.7607C56.2821 1.95909 55.4686 2.3837 54.8024 2.99262C54.1362 3.60154 53.6403 4.3737 53.3637 5.23284Z" fill="#FFB573"/>
<path d="M59.4082 8.50083C59.1518 9.17701 59.111 9.916 59.2915 10.6163C59.5346 11.5889 60.2641 11.6716 60.7164 11.0443C61.1686 10.4169 61.475 9.28379 60.9887 8.46679C60.5024 7.64978 59.7243 7.75677 59.4082 8.50083Z" fill="#FFB573"/>
<path d="M54.6863 0.641939C52.0602 -0.817002 47.3333 3.45283 46.1467 10.4217C45.2956 15.4113 55.9507 17.8234 62.6813 17.7456C62.2339 16.5687 59.4376 13.0284 61.2224 9.6193C62.5208 7.14396 63.9992 7.71781 64.0965 4.83883C64.2181 1.21093 59.4133 -1.22064 54.6863 0.641939Z" fill="#263238"/>
<path d="M60.6627 2.20783C63.7167 1.91118 66.7853 4.91173 64.5094 7.90256C63.9535 7.45676 63.3064 7.13857 62.614 6.9705C61.9215 6.80243 61.2006 6.78857 60.5022 6.92993C59.1065 7.24117 60.6627 2.20783 60.6627 2.20783Z" fill="#263238"/>
<path d="M55.2157 42.8977C55.2157 42.8977 49.0638 68.9739 46.146 83.9572C43.1016 99.7624 28.5074 116.229 28.5074 116.229L23.5664 113.467C23.5664 113.467 32.748 98.4396 35.7243 83.68C41.774 53.7231 37.6695 47.6928 43.5053 41.3318L55.2157 42.8977Z" fill="#263238"/>
<path d="M29.014 116.691L22.8232 113.243L23.7278 111.415L30.6723 114.61L29.014 116.691Z" fill="#1AB76D"/>
<path opacity="0.2" d="M51.934 48.5633C47.1389 52.731 47.6593 67.5296 48.1602 74.1726C50.1735 64.6992 52.5905 54.1559 53.9959 48.0527C53.5048 47.6734 52.8191 47.8144 51.934 48.5633Z" fill="black"/>
<path d="M59.1748 43.4715C59.1748 43.4715 61.9517 74.4351 60.4344 86.2428C58.8587 98.527 50.8442 125.25 50.8442 125.25L45.1738 124.521C45.1738 124.521 49.7744 98.0359 50.5914 85.878C51.4813 72.6162 47.5276 41.9104 47.5276 41.9104L59.1748 43.4715Z" fill="#263238"/>
<path d="M52.0455 125.576L43.9824 124.535L44.104 122.152L52.8576 122.999L52.0455 125.576Z" fill="#1AB76D"/>
<path d="M43.3789 40.3689L42.5133 41.6869C42.4452 41.789 42.5668 41.9154 42.7467 41.9397L59.4127 44.1768C59.5586 44.1768 59.685 44.1427 59.6996 44.0552L59.9963 42.6644C59.9963 42.5671 59.899 42.465 59.7434 42.4455L43.6513 40.2863C43.6026 40.2761 43.5521 40.2784 43.5046 40.2928C43.457 40.3073 43.4138 40.3334 43.3789 40.3689Z" fill="#1AB76D"/>
<path opacity="0.5" d="M43.3789 40.3689L42.5133 41.6869C42.4452 41.789 42.5668 41.9154 42.7467 41.9397L59.4127 44.1768C59.5586 44.1768 59.685 44.1427 59.6996 44.0552L59.9963 42.6644C59.9963 42.5671 59.899 42.465 59.7434 42.4455L43.6513 40.2863C43.6026 40.2761 43.5521 40.2784 43.5046 40.2928C43.457 40.3073 43.4138 40.3334 43.3789 40.3689Z" fill="black"/>
<path d="M45.3542 42.465L44.9214 42.4067C44.8339 42.4067 44.7755 42.3434 44.7852 42.2899L45.184 40.4809C45.184 40.4322 45.2764 40.3982 45.3591 40.4079L45.7919 40.4663C45.8794 40.4663 45.9378 40.5295 45.9281 40.583L45.5293 42.3921C45.5196 42.4213 45.4369 42.465 45.3542 42.465Z" fill="#263238"/>
<path d="M56.2379 43.9238L55.8051 43.8654C55.7225 43.8654 55.6592 43.8022 55.669 43.7487L56.0677 41.9396C56.0677 41.8861 56.1601 41.8521 56.2477 41.8667L56.6756 41.9202C56.7632 41.9202 56.8215 41.9882 56.8118 42.0417L56.413 43.846C56.4033 43.9238 56.3206 43.9238 56.2379 43.9238Z" fill="#263238"/>
</svg>
