<svg width="155" height="140" viewBox="0 0 155 140" fill="none" xmlns="http://www.w3.org/2000/svg">
<path d="M73.9464 140C114.786 140 147.893 138.067 147.893 135.683C147.893 133.298 114.786 131.365 73.9464 131.365C33.1069 131.365 0 133.298 0 135.683C0 138.067 33.1069 140 73.9464 140Z" fill="#F5F5F5"/>
<path d="M106.249 37.4346C106.18 38.5787 106.047 39.6275 105.898 40.7145C105.749 41.8014 105.547 42.8655 105.318 43.9334C104.872 46.0946 104.227 48.2101 103.392 50.2529L103.045 51.0156L102.961 51.2063L102.931 51.3055L102.87 51.4275C102.753 51.6669 102.606 51.89 102.431 52.0911C102.223 52.3251 101.975 52.5201 101.699 52.667C101.428 52.8094 101.133 52.9023 100.829 52.9416C100.363 52.9915 99.891 52.9421 99.4449 52.7967C98.8129 52.581 98.2165 52.2725 97.6753 51.8814C97.2018 51.5475 96.7496 51.1845 96.3214 50.7944C94.7162 49.306 93.2717 47.6532 92.0117 45.8631L93.2741 44.7915C94.0369 45.497 94.7996 46.2102 95.5624 46.8853C96.3208 47.5602 97.1125 48.1966 97.9346 48.7922C98.3216 49.069 98.724 49.3237 99.1398 49.5549C99.475 49.7583 99.837 49.9136 100.215 50.0164C100.345 50.0431 100.436 50.0164 100.395 50.0164C100.305 50.0264 100.22 50.0652 100.154 50.127C100.131 50.127 100.131 50.127 100.154 50.127L100.276 49.8105L100.543 49.1163C101.205 47.2053 101.721 45.2471 102.088 43.2583C102.29 42.2591 102.431 41.2408 102.584 40.2301C102.736 39.2195 102.843 38.1783 102.931 37.2134L106.249 37.4346Z" fill="#FFC3BD"/>
<path d="M103.938 33.2356C102.516 33.598 101.521 39.4484 101.521 39.4484L105.437 42.1181C105.437 42.1181 109.194 36.2181 108.107 34.6544C106.963 33.0183 106.013 32.7093 103.938 33.2356Z" fill="#1AB76D"/>
<path d="M103.938 33.2356C102.516 33.598 101.521 39.4484 101.521 39.4484L105.437 42.1181C105.437 42.1181 109.194 36.2181 108.107 34.6544C106.963 33.0183 106.013 32.7093 103.938 33.2356Z" fill="#1AB76D"/>
<path opacity="0.4" d="M103.938 33.2356C102.516 33.598 101.521 39.4484 101.521 39.4484L105.437 42.1181C105.437 42.1181 109.194 36.2181 108.107 34.6544C106.963 33.0183 106.013 32.7093 103.938 33.2356Z" fill="black"/>
<path opacity="0.3" d="M104.063 34.5437L102.973 40.4361L105.173 41.9311L104.063 34.5437Z" fill="black"/>
<path d="M93.3397 44.5512L91.49 41.6069L90.4336 44.9517C90.4336 44.9517 91.9591 46.5535 93.3435 46.1721L93.3397 44.5512Z" fill="#FFC3BD"/>
<path d="M88.744 40.6345L88.0117 43.4796L90.4182 44.9518L91.4747 41.6071L88.744 40.6345Z" fill="#FFC3BD"/>
<path d="M111.627 131.682H108.179L107.946 123.696H111.398L111.627 131.682Z" fill="#FFC3BD"/>
<path d="M142.057 115.664L139.429 117.899L133.415 112.529L136.043 110.298L142.057 115.664Z" fill="#FFC3BD"/>
<path d="M138.709 117.632L141.26 114.711C141.304 114.66 141.364 114.627 141.43 114.618C141.496 114.609 141.563 114.624 141.619 114.661L144.216 116.343C144.28 116.387 144.334 116.445 144.374 116.512C144.414 116.579 144.44 116.653 144.449 116.731C144.459 116.808 144.451 116.887 144.428 116.961C144.405 117.036 144.367 117.104 144.315 117.163C143.407 118.166 142.919 118.604 141.798 119.886C141.111 120.675 140.185 121.903 139.231 122.99C138.278 124.077 137.149 123.2 137.45 122.659C138.789 120.241 138.468 119.394 138.491 118.204C138.495 117.994 138.572 117.791 138.709 117.632Z" fill="#263238"/>
<path d="M108.061 131.285H111.936C112.003 131.285 112.067 131.308 112.118 131.352C112.168 131.395 112.201 131.456 112.211 131.522L112.653 134.573C112.666 134.654 112.66 134.736 112.637 134.814C112.614 134.892 112.573 134.965 112.519 135.025C112.465 135.086 112.398 135.134 112.323 135.166C112.248 135.198 112.166 135.213 112.085 135.21C110.735 135.187 110.083 135.107 108.378 135.107C107.329 135.107 105.163 135.217 103.713 135.217C102.264 135.217 102.188 133.783 102.794 133.658C105.495 133.074 106.559 132.273 107.47 131.507C107.634 131.364 107.844 131.285 108.061 131.285Z" fill="#263238"/>
<path opacity="0.2" d="M107.95 123.7L108.068 127.815H111.516L111.398 123.7H107.95Z" fill="black"/>
<path opacity="0.2" d="M136.047 110.298L133.415 112.529L136.52 115.298L139.147 113.063L136.047 110.298Z" fill="black"/>
<path d="M103.938 33.2355C103.938 33.2355 102.294 33.8152 105.585 54.0514H119.59C119.357 48.3497 119.35 44.8334 122.073 33.1364C120.112 32.7321 118.125 32.4696 116.127 32.3507C114.009 32.1998 111.883 32.1998 109.765 32.3507C107.035 32.6177 103.938 33.2355 103.938 33.2355Z" fill="#1AB76D"/>
<path opacity="0.4" d="M103.938 33.2355C103.938 33.2355 102.294 33.8152 105.585 54.0514H119.59C119.357 48.3497 119.35 44.8334 122.073 33.1364C120.112 32.7321 118.125 32.4696 116.127 32.3507C114.009 32.1998 111.883 32.1998 109.765 32.3507C107.035 32.6177 103.938 33.2355 103.938 33.2355Z" fill="black"/>
<path d="M116.127 32.3507C114.01 32.1998 111.884 32.1998 109.766 32.3507C109.423 32.3812 109.072 32.4194 108.725 32.4613C108.581 32.6781 108.489 32.9249 108.456 33.1828C108.423 33.4407 108.45 33.7027 108.534 33.9487C108.98 35.0585 110.59 35.1882 111.764 35.1882C116.101 35.1882 116.833 32.6558 116.863 32.549L116.905 32.3965C116.661 32.3812 116.387 32.3622 116.127 32.3507Z" fill="white"/>
<path d="M115.517 25.1921C115.113 27.2364 114.716 30.9854 116.146 32.3507C116.146 32.3507 115.586 34.4292 111.783 34.4292C107.588 34.4292 109.785 32.3545 109.785 32.3545C112.073 31.8091 112.008 30.1158 111.612 28.5407L115.517 25.1921Z" fill="#FFC3BD"/>
<path opacity="0.2" d="M113.904 26.55L111.593 28.5218C111.692 28.8966 111.759 29.2795 111.791 29.6659C112.661 29.5401 113.858 28.5828 113.954 27.6713C114.007 27.2977 113.99 26.9174 113.904 26.55Z" fill="black"/>
<path d="M113.118 14.0634C112.763 12.862 112.466 10.9704 114.602 10.1161C113.767 9.09396 113.564 7.17179 114.602 6.03146C115.639 4.89112 117.195 5.31064 117.195 5.31064C117.195 5.31064 117.653 2.52273 121.043 3.02234C124.434 3.52195 122.924 5.75304 122.924 5.75304C122.924 5.75304 127.55 4.83772 127.859 9.18549C128.168 13.5333 125.513 12.9993 125.513 12.9993C125.513 12.9993 127.576 14.7308 126.432 16.6339C125.288 18.537 122.645 17.881 122.645 17.881C122.645 17.881 121.402 21.2448 118.473 19.3303C115.544 17.4157 113.118 14.0634 113.118 14.0634Z" fill="#263238"/>
<path d="M106.249 16.5996C105.105 18.0794 105.608 19.7537 106.631 20.4134C109.09 21.9847 112.649 15.3944 111.722 14.605C110.795 13.8155 107.393 15.116 106.249 16.5996Z" fill="#263238"/>
<path d="M116.581 13.0758C114.964 12.4236 113.324 13.1063 112.813 14.0903C111.565 16.4892 117.229 20.8102 118.869 17.8126C119.841 16.0315 118.247 13.747 116.581 13.0758Z" fill="#1AB76D"/>
<path d="M115.898 20.4136C116.016 23.846 116.138 25.28 114.586 27.1907C112.256 30.0626 108.026 29.46 106.89 26.1419C105.868 23.1557 105.849 18.0642 109.049 16.3938C109.752 16.0217 110.539 15.8356 111.334 15.8532C112.13 15.8708 112.908 16.0914 113.594 16.4941C114.28 16.8969 114.852 17.4684 115.255 18.1544C115.659 18.8404 115.88 19.618 115.898 20.4136Z" fill="#FFC3BD"/>
<path d="M115.383 22.2097C113.858 21.6414 113.476 19.8604 113.72 19.1586C112.958 19.1281 111.291 18.8535 110.669 17.9077C109.479 18.6705 106.966 19.4332 106.695 18.1632C106.425 16.8932 110.216 13.6286 113.084 13.3769C116.493 13.0794 119.857 16.4279 118.991 19.6354C118.125 22.8428 115.383 22.2097 115.383 22.2097Z" fill="#263238"/>
<path d="M105.601 54.0515C105.601 54.0515 102.882 80.6149 103.107 91.1334C103.343 102.071 107.352 127.018 107.352 127.018H112.012C112.012 127.018 111.276 102.708 111.688 91.9686C112.138 80.2564 115.857 54.0515 115.857 54.0515H105.601Z" fill="#263238"/>
<path d="M112.401 127.186H106.932L106.527 125.443L112.656 125.229L112.401 127.186Z" fill="#1AB76D"/>
<path opacity="0.2" d="M111.627 60.6609C108.194 67.5791 110.936 80.2029 112.153 84.9016C112.775 77.846 113.827 69.2229 114.647 62.8919C114.128 59.3146 113.228 57.4687 111.627 60.6609Z" fill="black"/>
<path d="M109.285 54.0516C109.285 54.0516 112.458 81.6675 114.853 90.5347C117.698 101.061 135.368 115.229 135.368 115.229L138.953 112.178C138.953 112.178 126.146 96.7856 123.968 91.2403C119.327 79.4174 123.301 61.767 119.59 54.0439L109.285 54.0516Z" fill="#263238"/>
<path d="M139.525 112.022L135.078 115.798L133.415 114.802L138.445 110.123L139.525 112.022Z" fill="#1AB76D"/>
<path d="M110.822 21.8476C110.849 22.126 110.723 22.3625 110.544 22.3816C110.365 22.4006 110.193 22.1871 110.163 21.9125C110.132 21.6379 110.262 21.3938 110.445 21.3785C110.628 21.3633 110.796 21.5578 110.822 21.8476Z" fill="#263238"/>
<path d="M107.694 22.1489C107.721 22.4234 107.595 22.6637 107.412 22.6828C107.229 22.7019 107.065 22.4883 107.031 22.2099C106.996 21.9315 107.13 21.695 107.309 21.6798C107.488 21.6645 107.668 21.8704 107.694 22.1489Z" fill="#263238"/>
<path d="M107.398 21.6873L106.715 21.5576C106.715 21.5576 107.127 22.0458 107.398 21.6873Z" fill="#263238"/>
<path d="M108.564 22.5454C108.379 23.2002 108.104 23.8264 107.748 24.4066C107.899 24.4936 108.068 24.5468 108.241 24.5626C108.415 24.5784 108.59 24.5564 108.755 24.4981L108.564 22.5454Z" fill="#ED847E"/>
<path d="M110.292 25.4096C110.141 25.451 109.986 25.479 109.83 25.4935C109.82 25.4946 109.809 25.4935 109.799 25.4904C109.789 25.4873 109.78 25.4823 109.771 25.4756C109.763 25.4688 109.756 25.4605 109.752 25.4512C109.747 25.4418 109.744 25.4316 109.743 25.421C109.74 25.3994 109.747 25.3777 109.76 25.3606C109.774 25.3435 109.793 25.3324 109.815 25.3295C110.16 25.3041 110.495 25.1981 110.791 25.0199C111.088 24.8417 111.339 24.5963 111.524 24.3036C111.528 24.2935 111.535 24.2845 111.543 24.2771C111.551 24.2698 111.561 24.2643 111.571 24.261C111.582 24.2577 111.593 24.2568 111.604 24.2582C111.614 24.2596 111.625 24.2634 111.634 24.2693C111.653 24.2798 111.667 24.2971 111.674 24.3177C111.68 24.3383 111.678 24.3605 111.669 24.3799C111.361 24.889 110.867 25.2584 110.292 25.4096Z" fill="#263238"/>
<path d="M116.699 22.7819C116.616 23.4382 116.276 24.0348 115.753 24.441C115.055 24.9749 114.384 24.441 114.304 23.6057C114.235 22.843 114.51 21.6988 115.341 21.4776C115.523 21.4407 115.711 21.4483 115.888 21.4999C116.066 21.5514 116.229 21.6454 116.362 21.7736C116.496 21.9019 116.596 22.0607 116.655 22.2363C116.714 22.4119 116.729 22.5992 116.699 22.7819Z" fill="#FFC3BD"/>
<path d="M111.158 19.8873C111.136 19.8927 111.114 19.8937 111.093 19.8905C111.071 19.8872 111.05 19.8796 111.032 19.8682C110.859 19.7579 110.662 19.69 110.458 19.6701C110.254 19.6502 110.048 19.6789 109.857 19.7538C109.817 19.7714 109.772 19.7734 109.731 19.7592C109.69 19.7451 109.656 19.7159 109.636 19.6775C109.617 19.6386 109.615 19.5939 109.629 19.5532C109.644 19.5125 109.673 19.4791 109.712 19.4601C109.952 19.361 110.213 19.321 110.472 19.3435C110.73 19.3661 110.98 19.4506 111.2 19.5898C111.218 19.6008 111.233 19.6152 111.246 19.6323C111.258 19.6493 111.267 19.6687 111.272 19.6893C111.277 19.7099 111.278 19.7312 111.275 19.7521C111.271 19.773 111.264 19.793 111.253 19.811C111.232 19.8475 111.198 19.8747 111.158 19.8873Z" fill="#263238"/>
<path d="M106.161 20.8368C106.122 20.8517 106.079 20.8517 106.039 20.8368C106.002 20.8152 105.975 20.7802 105.963 20.7391C105.951 20.6979 105.955 20.6538 105.974 20.6156C106.091 20.3835 106.261 20.1829 106.472 20.0308C106.682 19.8788 106.926 19.7798 107.183 19.7422C107.205 19.7401 107.226 19.7423 107.247 19.7487C107.267 19.7551 107.286 19.7656 107.303 19.7795C107.319 19.7933 107.332 19.8103 107.342 19.8295C107.352 19.8487 107.357 19.8696 107.359 19.891C107.362 19.9339 107.348 19.9763 107.32 20.0091C107.293 20.0419 107.253 20.0625 107.21 20.0664C107.008 20.1004 106.816 20.1817 106.651 20.3037C106.486 20.4256 106.352 20.5847 106.26 20.7681C106.25 20.7859 106.235 20.8011 106.218 20.813C106.201 20.8248 106.182 20.8329 106.161 20.8368Z" fill="#263238"/>
<path d="M123.504 36.855C124.281 38.7574 124.952 40.7016 125.513 42.6787C126.108 44.673 126.532 46.7145 126.78 48.7808C126.844 49.3071 126.864 49.8601 126.886 50.4055V50.7144C126.886 50.825 126.867 50.9395 126.852 51.0386C126.82 51.2292 126.777 51.4177 126.722 51.6031C126.623 51.9202 126.495 52.2279 126.341 52.5222C125.812 53.5 125.164 54.4083 124.411 55.2262C123.019 56.7555 121.487 58.1511 119.835 59.3947L118.732 58.1705C120.002 56.6869 121.284 55.1652 122.371 53.5939C122.896 52.8808 123.343 52.1137 123.706 51.3056C123.768 51.1492 123.819 50.9886 123.858 50.8251C123.869 50.7696 123.875 50.7136 123.877 50.6572C123.879 50.6408 123.879 50.6241 123.877 50.6077V50.5543C123.828 50.1042 123.793 49.6542 123.709 49.1927C123.381 47.3087 122.924 45.4495 122.34 43.6283C121.757 41.7825 121.105 39.9099 120.433 38.125L123.504 36.855Z" fill="#FFC3BD"/>
<path d="M122.073 33.1364C123.476 33.5635 125.162 38.3956 125.162 38.3956L119.712 42.2857C119.712 42.2857 117.725 38.2545 118.316 36.4391C118.949 34.5513 120.475 32.6482 122.073 33.1364Z" fill="#1AB76D"/>
<path opacity="0.4" d="M122.073 33.1364C123.476 33.5635 125.162 38.3956 125.162 38.3956L119.712 42.2857C119.712 42.2857 117.725 38.2545 118.316 36.4391C118.949 34.5513 120.475 32.6482 122.073 33.1364Z" fill="black"/>
<path d="M137.767 119.295C137.697 119.293 137.627 119.275 137.565 119.243C137.502 119.21 137.447 119.164 137.405 119.108C137.37 119.072 137.346 119.028 137.334 118.98C137.322 118.932 137.322 118.881 137.336 118.833C137.466 118.414 138.663 118.07 138.801 118.032C138.816 118.027 138.832 118.027 138.847 118.031C138.862 118.036 138.876 118.046 138.885 118.059C138.893 118.072 138.898 118.087 138.898 118.103C138.898 118.118 138.893 118.134 138.885 118.147C138.671 118.555 138.248 119.241 137.813 119.291L137.767 119.295ZM138.652 118.246C138.179 118.398 137.561 118.662 137.508 118.883C137.502 118.904 137.502 118.926 137.508 118.947C137.514 118.968 137.526 118.986 137.542 119.001C137.573 119.045 137.614 119.08 137.662 119.102C137.71 119.125 137.764 119.135 137.817 119.131C138.038 119.104 138.347 118.776 138.652 118.246Z" fill="#1AB76D"/>
<path d="M138.274 118.261C137.917 118.297 137.56 118.197 137.274 117.979C137.235 117.928 137.213 117.866 137.213 117.802C137.213 117.737 137.235 117.675 137.274 117.624C137.308 117.571 137.354 117.527 137.407 117.494C137.461 117.461 137.521 117.44 137.583 117.433C138.079 117.372 138.831 118.021 138.861 118.048C138.872 118.056 138.881 118.068 138.885 118.082C138.89 118.095 138.891 118.11 138.888 118.124C138.886 118.139 138.88 118.153 138.871 118.164C138.861 118.176 138.849 118.184 138.834 118.189C138.652 118.24 138.463 118.265 138.274 118.261ZM137.667 117.594H137.614C137.575 117.598 137.537 117.611 137.504 117.631C137.47 117.652 137.441 117.679 137.419 117.712C137.362 117.8 137.381 117.845 137.419 117.876C137.568 118.07 138.247 118.143 138.659 118.067C138.377 117.823 138.034 117.659 137.667 117.594Z" fill="#1AB76D"/>
<path d="M106.764 131.888C106.469 131.915 106.174 131.839 105.929 131.674C105.876 131.627 105.836 131.567 105.81 131.501C105.784 131.435 105.774 131.364 105.78 131.293C105.783 131.248 105.798 131.204 105.822 131.166C105.847 131.128 105.881 131.097 105.921 131.076C106.345 130.843 107.718 131.545 107.874 131.629C107.888 131.637 107.9 131.649 107.908 131.664C107.915 131.679 107.918 131.696 107.916 131.712C107.914 131.729 107.906 131.745 107.895 131.757C107.883 131.77 107.868 131.778 107.851 131.781C107.493 131.85 107.129 131.886 106.764 131.888ZM106.15 131.175C106.097 131.171 106.045 131.182 105.997 131.205C105.981 131.213 105.967 131.226 105.958 131.241C105.949 131.257 105.944 131.275 105.944 131.293C105.938 131.341 105.943 131.389 105.96 131.434C105.976 131.48 106.004 131.52 106.039 131.552C106.249 131.743 106.802 131.774 107.565 131.648C107.124 131.41 106.645 131.251 106.15 131.175Z" fill="#1AB76D"/>
<path d="M107.835 131.777H107.801C107.389 131.591 106.577 130.847 106.657 130.458C106.657 130.366 106.737 130.248 106.962 130.225C107.043 130.217 107.125 130.225 107.203 130.249C107.281 130.273 107.354 130.313 107.416 130.366C107.847 130.729 107.927 131.655 107.931 131.697C107.932 131.711 107.929 131.725 107.923 131.738C107.917 131.751 107.908 131.762 107.896 131.77C107.887 131.775 107.877 131.779 107.867 131.78C107.856 131.782 107.845 131.781 107.835 131.777ZM107.012 130.378H106.966C106.813 130.378 106.806 130.454 106.802 130.473C106.764 130.706 107.317 131.293 107.736 131.545C107.702 131.153 107.547 130.781 107.294 130.481C107.217 130.41 107.116 130.369 107.012 130.366V130.378Z" fill="#1AB76D"/>
<path d="M119.799 53.2125L120.158 54.4673C120.207 54.5626 120.093 54.6618 119.929 54.6618H105.517C105.391 54.6618 105.284 54.6008 105.276 54.5207L105.15 53.2697C105.15 53.182 105.25 53.1095 105.391 53.1095H119.574C119.618 53.1059 119.661 53.1134 119.7 53.1315C119.74 53.1495 119.774 53.1774 119.799 53.2125Z" fill="#1AB76D"/>
<path opacity="0.3" d="M119.799 53.2125L120.158 54.4673C120.207 54.5626 120.093 54.6618 119.929 54.6618H105.517C105.391 54.6618 105.284 54.6008 105.276 54.5207L105.15 53.2697C105.15 53.182 105.25 53.1095 105.391 53.1095H119.574C119.618 53.1059 119.661 53.1134 119.7 53.1315C119.74 53.1495 119.774 53.1774 119.799 53.2125Z" fill="white"/>
<path d="M117.897 54.8142H118.278C118.351 54.8142 118.408 54.7761 118.404 54.7265L118.225 53.098C118.225 53.0522 118.156 53.0103 118.08 53.0103H117.699C117.623 53.0103 117.565 53.0522 117.573 53.098L117.748 54.7265C117.756 54.7761 117.806 54.8142 117.897 54.8142Z" fill="#263238"/>
<path d="M106.585 54.8142H106.966C107.043 54.8142 107.1 54.7761 107.096 54.7265L106.917 53.098C106.917 53.0522 106.844 53.0103 106.772 53.0103H106.391C106.314 53.0103 106.257 53.0522 106.261 53.098L106.44 54.7265C106.444 54.7761 106.509 54.8142 106.585 54.8142Z" fill="#263238"/>
<path d="M112.241 54.8142H112.622C112.699 54.8142 112.756 54.7761 112.752 54.7265L112.573 53.098C112.573 53.0522 112.504 53.0103 112.428 53.0103H112.046C111.97 53.0103 111.913 53.0522 111.921 53.098L112.085 54.7379C112.085 54.7761 112.165 54.8142 112.241 54.8142Z" fill="#263238"/>
<path d="M110.528 21.386L109.846 21.2563C109.846 21.2563 110.235 21.7445 110.528 21.386Z" fill="#263238"/>
<path opacity="0.2" d="M97.9045 69.9513C91.443 72.4616 84.3823 72.9995 77.6152 71.4969C70.8481 69.9944 64.6785 66.519 59.8865 61.5101C55.0945 56.5013 51.8954 50.1839 50.6938 43.357C49.4921 36.53 50.3418 29.5 53.1354 23.1559C55.929 16.8119 60.5411 11.4387 66.3885 7.71574C72.2358 3.99283 79.0558 2.08743 85.9861 2.24048C92.9163 2.39353 99.6455 4.59815 105.323 8.57558C111 12.553 115.371 18.1246 117.881 24.5858C119.549 28.8762 120.355 33.4531 120.254 38.0551C120.153 42.6571 119.146 47.1941 117.29 51.4068C115.435 55.6196 112.769 59.4256 109.442 62.6075C106.116 65.7894 102.195 68.2849 97.9045 69.9513Z" fill="#1AB76D"/>
<path opacity="0.1" d="M91.5619 2.81278L64.0718 65.2452C63.6485 64.9249 63.2289 64.5931 62.817 64.2574C60.1601 62.0594 57.8463 59.477 55.9521 56.5954L79.6971 2.66785C83.631 2.03425 87.6446 2.08327 91.5619 2.81278Z" fill="white"/>
<path opacity="0.1" d="M111.104 13.6439L85.2576 72.3426C79.889 72.3483 74.591 71.1191 69.7734 68.75L97.9958 4.65088C102.996 6.60626 107.48 9.68288 111.104 13.6439Z" fill="white"/>
<path d="M56.3571 13.6706C61.0274 7.96404 67.285 3.77048 74.3386 1.62026C81.3922 -0.529957 88.925 -0.540258 95.9845 1.59066C103.044 3.72158 109.313 7.89802 113.999 13.5918C118.685 19.2856 121.577 26.2411 122.31 33.5787C123.043 40.9162 121.583 48.3063 118.116 54.8144C114.649 61.3225 109.33 66.6564 102.831 70.1414C96.3325 73.6264 88.9465 75.1062 81.6069 74.3935C74.2674 73.6808 67.304 70.8077 61.5973 66.1375C53.9457 59.8743 49.0951 50.8284 48.1124 40.9892C47.1297 31.1501 50.0954 21.3235 56.3571 13.6706ZM111.703 58.9637C115.99 53.7234 118.627 47.3296 119.28 40.5908C119.934 33.852 118.574 27.0708 115.373 21.1047C112.173 15.1386 107.275 10.2555 101.299 7.07288C95.3236 3.89028 88.5383 2.5511 81.8015 3.22467C75.0646 3.89825 68.6788 6.55433 63.4515 10.8571C58.2242 15.1598 54.3901 20.9159 52.4341 27.3976C50.4781 33.8793 50.4879 40.7955 52.4625 47.2716C54.437 53.7477 58.2875 59.4928 63.5271 63.7806C67.0066 66.628 71.0128 68.762 75.3171 70.061C79.6213 71.3599 84.1393 71.7982 88.613 71.3509C93.0867 70.9036 97.4285 69.5795 101.39 67.454C105.352 65.3286 108.857 62.4436 111.703 58.9637Z" fill="#1AB76D"/>
<path d="M114.995 58.834C118.668 61.0269 122.161 63.4373 125.594 65.9239C129.026 68.4105 132.371 71.0001 135.662 73.6584C138.953 76.3166 142.184 79.0511 145.3 81.9229C146.861 83.3569 148.386 84.8291 149.876 86.3393C151.371 87.8649 152.84 89.3904 154.224 91.0456C154.544 91.4289 154.72 91.9115 154.723 92.4107C154.725 92.9099 154.554 93.3943 154.238 93.7807C153.922 94.1671 153.481 94.4314 152.991 94.528C152.502 94.6247 151.993 94.5477 151.554 94.3103C149.647 93.2805 147.863 92.144 146.082 90.9808C144.3 89.8176 142.561 88.6048 140.845 87.3576C137.413 84.871 134.091 82.2509 130.838 79.5469C127.584 76.8429 124.381 74.0779 121.265 71.2023C118.149 68.3266 115.094 65.3823 112.218 62.2169C111.859 61.8253 111.654 61.3175 111.639 60.7865C111.624 60.2554 111.801 59.7368 112.137 59.3257C112.474 58.9146 112.947 58.6386 113.471 58.5483C113.994 58.4579 114.533 58.5594 114.987 58.834H114.995Z" fill="#1AB76D"/>
<path d="M119.098 57.7891L115.414 58.3497L118.049 60.6609C118.049 60.6609 120.132 59.8981 120.338 58.487L119.098 57.7891Z" fill="#FFC3BD"/>
<path d="M113.423 60.4665L115.738 62.2819L118.564 60.436L115.414 58.3574L113.423 60.4665Z" fill="#FFC3BD"/>
<path d="M96.0057 64.4824C96.3422 63.5638 96.949 62.7686 97.7462 62.2015C98.5434 61.6345 99.4936 61.3221 100.472 61.3055H131.001C131.529 61.2858 132.054 61.3821 132.541 61.5876C133.027 61.7931 133.462 62.1028 133.816 62.4948C134.169 62.8869 134.432 63.3518 134.587 63.8567C134.741 64.3615 134.783 64.8941 134.709 65.4168L126.822 131.591C126.654 132.717 126.091 133.747 125.234 134.497C124.377 135.247 123.281 135.667 122.142 135.683H25.2706C24.7448 135.703 24.2211 135.607 23.7362 135.403C23.2513 135.199 22.817 134.891 22.464 134.501C22.1109 134.111 21.8477 133.648 21.6928 133.145C21.5379 132.642 21.4951 132.112 21.5673 131.591L28.1805 75.9926C28.3479 74.866 28.9106 73.8358 29.7679 73.086C30.6252 72.3363 31.7213 71.916 32.8601 71.9003H85.5749C87.8591 71.8614 90.0781 71.1319 91.9399 69.8079C93.8017 68.4839 95.2191 66.6273 96.0057 64.4824Z" fill="#1AB76D"/>
<path d="M23.3105 132.635H124.533L130.3 64.5281H29.0809L23.3105 132.635Z" fill="#F0F0F0"/>
<path d="M23.3105 132.635H124.533L128.706 64.5281H29.0809L23.3105 132.635Z" fill="#E0E0E0"/>
<path d="M23.3105 132.636H124.533L128.012 62.3657H26.7926L23.3105 132.636Z" fill="#F0F0F0"/>
<path d="M23.3105 132.636H124.533L125.91 62.3657H26.7926L23.3105 132.636Z" fill="#E0E0E0"/>
<path d="M23.3105 132.636H124.533L125.136 60.4587H23.9169L23.3105 132.636Z" fill="#F0F0F0"/>
<path d="M23.3103 132.636H124.533L122.455 61.8242H21.8877L23.3103 132.636Z" fill="#E0E0E0"/>
<path d="M23.3111 132.636H124.534L121.529 62.3657H20.3096L23.3111 132.636Z" fill="#F0F0F0"/>
<path d="M23.3109 132.636H124.534L119.747 63.426H18.5283L23.3109 132.636Z" fill="#E0E0E0"/>
<path d="M23.31 132.636H124.533L118.984 64.0171H17.7646L23.31 132.636Z" fill="#F0F0F0"/>
<path d="M74.0003 68.7804C74.0059 68.3379 74.1006 67.9011 74.2785 67.4959C74.4565 67.0907 74.7142 66.7255 75.0362 66.422C75.3583 66.1184 75.7381 65.8828 76.1531 65.7291C76.5681 65.5754 77.0097 65.5067 77.4518 65.5272H107.982C109.164 65.5726 110.297 66.0092 111.204 66.7685C112.111 67.5278 112.74 68.5668 112.993 69.7224L125.056 131.507C125.506 133.822 123.996 135.702 121.681 135.702H24.8095C22.4906 135.702 20.2329 133.822 19.7943 131.507L9.84398 80.5728C9.39395 78.2578 10.9042 76.3776 13.2192 76.3776H65.9378C70.5144 76.3776 73.8439 73.2274 74.0003 68.7804Z" fill="#1AB76D"/>
<path opacity="0.2" d="M74.0003 68.7804C74.0059 68.3379 74.1006 67.9011 74.2785 67.4959C74.4565 67.0907 74.7142 66.7255 75.0362 66.422C75.3583 66.1184 75.7381 65.8828 76.1531 65.7291C76.5681 65.5754 77.0097 65.5067 77.4518 65.5272H107.982C109.164 65.5726 110.297 66.0092 111.204 66.7685C112.111 67.5278 112.74 68.5668 112.993 69.7224L125.056 131.507C125.506 133.822 123.996 135.702 121.681 135.702H24.8095C22.4906 135.702 20.2329 133.822 19.7943 131.507L9.84398 80.5728C9.39395 78.2578 10.9042 76.3776 13.2192 76.3776H65.9378C70.5144 76.3776 73.8439 73.2274 74.0003 68.7804Z" fill="black"/>
</svg>
